<svg width="35" height="35" viewBox="0 0 35 35" fill="none" xmlns="http://www.w3.org/2000/svg">
<g clip-path="url(#clip0_1_91)">
<path fill-rule="evenodd" clip-rule="evenodd" d="M17.6053 1.55669L17.9412 1.56322C17.961 1.68833 17.9412 1.81344 17.9479 1.94526L17.6186 1.95198C17.579 2.07055 17.6053 2.20873 17.6053 2.33402C17.77 2.38667 17.9345 2.4524 18.0596 2.59748C18.2769 2.56444 18.4745 2.67647 18.5802 2.87403C18.6788 2.72913 18.8433 2.63017 19.0278 2.63017C19.1926 2.64342 19.3508 2.71587 19.443 2.86731C19.4761 2.93976 19.5022 3.01221 19.5222 3.09791C19.5842 3.04333 19.6591 3.00559 19.7398 2.98829C19.8205 2.97099 19.9044 2.97473 19.9832 2.99913C20.1083 3.04525 20.2598 3.15075 20.3059 3.29565C20.3322 3.3681 20.319 3.44055 20.3386 3.51953C20.4967 3.46034 20.701 3.45362 20.8592 3.56565C21.0173 3.69748 21.0898 3.92136 21.0304 4.13217L21.0435 4.14543C21.2347 4.11238 21.4122 4.2048 21.5308 4.36277L21.5442 4.36931C21.6428 4.17175 21.8538 4.06644 22.0777 4.09931C22.2094 4.13217 22.3675 4.19808 22.4334 4.34298L22.4926 4.48806C22.6508 4.37603 22.9142 4.37603 23.0856 4.50113C23.224 4.6197 23.2963 4.78439 23.2765 4.97541C23.4283 4.9095 23.6128 4.88317 23.7773 4.98213C23.8503 5.02919 23.9107 5.09341 23.9532 5.16918C23.9956 5.24496 24.0189 5.32998 24.0209 5.41683L24.0012 5.64071C24.1462 5.58805 24.3175 5.62764 24.4495 5.73295C24.5611 5.85152 24.634 6.00949 24.614 6.18744C24.6009 6.26642 24.5548 6.33234 24.5348 6.4046C24.693 6.41132 24.8377 6.5101 24.9299 6.66153C24.9958 6.78664 25.0026 6.97766 24.9236 7.11602L24.7985 7.28071C24.8379 7.30722 24.9038 7.32011 24.963 7.35298C25.1013 7.45176 25.187 7.60337 25.2066 7.7746C25.2134 7.87338 25.1542 7.95236 25.1474 8.0446C25.2795 8.12377 25.3781 8.28174 25.3911 8.4399C25.3848 8.53867 25.345 8.62438 25.3056 8.7099C25.4176 8.91417 25.4307 9.23684 25.2793 9.42786C25.1791 9.53541 25.0497 9.6114 24.9069 9.64649C24.7642 9.68158 24.6143 9.67425 24.4756 9.62541C24.2252 9.8758 23.8762 9.99437 23.5469 9.94154C23.5138 10.0272 23.4809 10.126 23.3954 10.1789C23.3162 10.2117 23.2309 10.2248 23.1581 10.2052C22.664 9.98784 22.1765 9.77031 21.6761 9.62559C20.2469 9.09866 18.679 8.81558 17.131 8.85498C17.0651 8.86152 16.9861 8.86152 16.9137 8.87459C15.1549 8.98009 13.5411 9.44765 11.9868 10.1064C11.7758 10.1525 11.5321 10.3964 11.3347 10.1658C11.2973 10.1085 11.2747 10.0429 11.2688 9.97476C10.9525 10.0011 10.6694 9.93518 10.4323 9.73109C10.1688 9.78393 9.8527 9.71783 9.67494 9.48088C9.54311 9.30965 9.5629 9.03293 9.63535 8.84191C9.49699 8.7168 9.42454 8.53886 9.49045 8.36109C9.53046 8.24891 9.61008 8.15521 9.71434 8.09762C9.66168 7.97905 9.62863 7.84069 9.66822 7.70887C9.72087 7.52457 9.87885 7.37967 10.07 7.35316L10.0766 7.33355C9.95148 7.18865 9.81965 7.02378 9.8921 6.81969C9.93804 6.62867 10.1225 6.47723 10.3135 6.45744V6.4244C10.2149 6.28622 10.2149 6.06887 10.3005 5.93051C10.3862 5.74602 10.5639 5.6605 10.7615 5.67358L10.8801 5.68665C10.8274 5.54175 10.8076 5.36399 10.8933 5.22563C10.9919 5.0544 11.1631 4.95562 11.3543 4.96869C11.4203 4.96234 11.4992 4.98849 11.5586 5.02807C11.5519 4.89625 11.5719 4.77114 11.6376 4.67236C11.7496 4.4946 11.9735 4.41543 12.1778 4.45501C12.237 4.46809 12.2964 4.4946 12.349 4.534C12.4019 4.43522 12.4347 4.32337 12.5335 4.25074C12.6653 4.13217 12.8629 4.09931 13.0406 4.16522C13.1394 4.2048 13.2382 4.29032 13.2976 4.39582C13.4227 4.27071 13.5676 4.18501 13.7586 4.22459C13.7651 4.15868 13.7323 4.08623 13.7388 4.02032C13.7455 3.84256 13.8574 3.67787 14.0288 3.59888C14.167 3.52643 14.358 3.54622 14.5029 3.61195C14.4635 3.43419 14.5096 3.25625 14.6412 3.13768C14.7009 3.07859 14.7741 3.03507 14.8545 3.01095C14.9349 2.98682 15.02 2.98282 15.1023 2.99931C15.1747 3.01911 15.2406 3.06523 15.3064 3.11135C15.3459 3.06541 15.3525 2.98642 15.3988 2.93358C15.4778 2.78868 15.6227 2.70298 15.7808 2.68337C15.9323 2.66358 16.0641 2.76236 16.1696 2.86785C16.2353 2.72295 16.3935 2.59785 16.5581 2.57806C16.6438 2.55826 16.7032 2.59113 16.7889 2.57806C16.8877 2.45295 17.0391 2.40029 17.184 2.34745L17.2037 2.31441V1.95198L16.8349 1.94526C16.8283 1.83323 16.8153 1.69505 16.8349 1.56976L17.1839 1.56322C17.2233 1.45119 17.1706 1.31301 17.2167 1.21423L17.5922 1.22077L17.6053 1.55669Z" fill="black"/>
<path fill-rule="evenodd" clip-rule="evenodd" d="M17.5198 1.63568C17.612 1.64893 17.7439 1.6424 17.8559 1.6424C17.869 1.71485 17.869 1.80709 17.8559 1.86628H17.5329L17.5131 1.90586L17.5198 2.39993C17.6382 2.45259 17.7833 2.46585 17.8953 2.55809L18.0337 2.68973C18.1005 2.67296 18.1705 2.67323 18.2373 2.69052C18.304 2.7078 18.3654 2.74156 18.4157 2.78869C18.4749 2.85442 18.5146 2.93359 18.5341 3.02583C18.5539 3.03255 18.5936 3.04562 18.6267 3.01929C18.6594 2.86114 18.8112 2.73603 18.9757 2.71624C19.1008 2.70317 19.2193 2.75583 19.3183 2.83481C19.4236 2.93359 19.4367 3.08502 19.43 3.2301C19.5289 3.32234 19.5289 3.13786 19.6275 3.12461C19.7201 3.06541 19.8452 3.05888 19.9638 3.07849C20.0493 3.11807 20.1614 3.19052 20.2075 3.2893C20.2734 3.4144 20.2473 3.58563 20.2075 3.71746C20.2603 3.71746 20.2934 3.64501 20.3589 3.61868C20.4777 3.52644 20.6685 3.54623 20.8005 3.63193C20.9256 3.71746 20.9783 3.86235 20.9717 4.02051C20.965 4.11928 20.8995 4.1852 20.8728 4.2709L20.8926 4.28416C20.9979 4.22478 21.1099 4.19845 21.2416 4.23804C21.3997 4.29723 21.4987 4.45538 21.5512 4.62007C21.5642 4.63333 21.5709 4.607 21.5842 4.59374C21.5909 4.42905 21.6764 4.25783 21.8477 4.20517C21.986 4.14579 22.1573 4.17884 22.2825 4.28434C22.3811 4.37658 22.4077 4.51476 22.4142 4.65966L22.4273 4.67291C22.5262 4.54109 22.6713 4.45556 22.8556 4.49515C22.9807 4.52148 23.1321 4.62025 23.1715 4.76515C23.2046 4.86393 23.1913 4.99576 23.1452 5.088C23.1385 5.12086 23.1715 5.1274 23.1977 5.14719C23.2836 5.07474 23.3822 5.00229 23.514 5.00229C23.5825 4.99976 23.6505 5.01476 23.7116 5.04587C23.7726 5.07698 23.8248 5.12317 23.863 5.18006C23.962 5.34475 23.9489 5.59496 23.8367 5.74657C23.8299 5.7729 23.8565 5.80577 23.8828 5.81902C23.9948 5.72025 24.1793 5.66087 24.3307 5.75311C24.4558 5.8321 24.5219 5.977 24.5283 6.12861C24.502 6.26044 24.456 6.39208 24.3505 6.47107C24.3375 6.48414 24.3505 6.49068 24.37 6.49068C24.515 6.45781 24.693 6.50375 24.8115 6.63557C24.864 6.72128 24.9105 6.82659 24.8907 6.94516C24.8642 7.09006 24.7195 7.19538 24.6601 7.3272C24.6795 7.40637 24.7852 7.35353 24.8509 7.39965C24.983 7.43251 25.0817 7.58413 25.1144 7.71559C25.1081 7.83416 25.095 7.95945 25.0222 8.05169V8.07148C25.1542 8.15047 25.3056 8.26904 25.2987 8.45352C25.2856 8.54576 25.2462 8.63128 25.2001 8.70391C25.2856 8.84881 25.3318 9.03983 25.2856 9.22431C25.2065 9.42859 25.0091 9.56677 24.8052 9.58656C24.6665 9.59328 24.5548 9.57349 24.4558 9.52736C24.2054 9.79737 23.8103 9.95552 23.4479 9.83695C23.4149 9.86328 23.4479 9.91594 23.4479 9.96878C23.4348 10.0412 23.3624 10.0873 23.3095 10.1267L23.2042 10.1335C22.8222 9.96878 22.4467 9.81716 22.0779 9.66573C21.1359 9.33653 20.181 9.04655 19.1861 8.90165C17.5131 8.61839 15.7149 8.81613 14.088 9.27697C13.2184 9.52065 12.3819 9.81716 11.5719 10.1925C11.4927 10.1925 11.4203 10.1333 11.3741 10.0739C11.3347 10.008 11.3676 9.92901 11.3741 9.87635C11.058 9.93555 10.7023 9.87635 10.4586 9.63268C10.2742 9.69859 10.037 9.66554 9.88558 9.56677C9.72742 9.46127 9.66169 9.3033 9.66169 9.12535C9.66823 9.01332 9.70128 8.92108 9.7474 8.82902C9.65498 8.74985 9.56963 8.65779 9.5562 8.53904C9.53659 8.37435 9.63537 8.24271 9.76701 8.16372C9.7868 8.14393 9.83292 8.15047 9.84618 8.11088C9.7474 7.99867 9.71435 7.84742 9.76047 7.70906C9.81331 7.57723 9.92516 7.45212 10.0701 7.43251C10.1095 7.4129 10.1756 7.43923 10.2019 7.39293C10.1623 7.28108 10.0504 7.19538 10.0041 7.0966C9.93188 6.97131 9.96475 6.80008 10.0503 6.69477C10.1558 6.55641 10.327 6.51029 10.4915 6.54333C10.5048 6.54987 10.5113 6.52354 10.5048 6.51682C10.3796 6.42458 10.2939 6.27297 10.327 6.10828C10.3468 5.9701 10.4323 5.83173 10.5707 5.77908C10.7288 5.71316 10.9066 5.75929 11.0384 5.86478C11.1966 5.7858 10.9725 5.74621 10.9725 5.66051C10.8935 5.52215 10.9131 5.33113 11.0055 5.20602C11.1109 5.08091 11.2625 5.015 11.427 5.06112C11.4929 5.08091 11.5784 5.12704 11.6245 5.19277C11.651 5.18623 11.6772 5.16644 11.697 5.14683C11.6245 5.03479 11.6245 4.88336 11.6772 4.76479C11.7631 4.60664 11.9341 4.52765 12.1054 4.53419C12.2305 4.53419 12.336 4.61989 12.4217 4.71213C12.4678 4.65929 12.4282 4.57377 12.4611 4.5144C12.5072 4.3695 12.6323 4.23785 12.7904 4.21806C12.865 4.2078 12.9409 4.21766 13.0104 4.24662C13.0799 4.27557 13.1404 4.32257 13.1856 4.38275C13.2319 4.43559 13.2384 4.50786 13.2845 4.5607C13.3374 4.46846 13.4163 4.37622 13.5217 4.33663C13.64 4.26436 13.7982 4.30377 13.9233 4.36314C13.9498 4.34335 13.9233 4.31048 13.91 4.29069C13.818 4.1852 13.8049 4.00071 13.8641 3.87561C13.93 3.73071 14.0815 3.63847 14.2461 3.63847C14.3976 3.64519 14.5294 3.72399 14.6149 3.856C14.648 3.86253 14.6808 3.82295 14.7072 3.79662C14.6084 3.68459 14.549 3.54641 14.5951 3.39479C14.6215 3.24336 14.7531 3.12479 14.8915 3.09192C15.0233 3.0458 15.168 3.09846 15.2735 3.1907L15.3855 3.32888C15.4382 3.28294 15.3788 3.17745 15.4184 3.11153C15.4513 2.96664 15.5502 2.83499 15.7017 2.78234C15.8137 2.7364 15.9588 2.78905 16.0574 2.88111C16.1166 2.9207 16.1364 2.9995 16.189 3.05234C16.2351 2.97317 16.2484 2.86114 16.3274 2.78887C16.4394 2.67684 16.6237 2.61765 16.7951 2.68338C16.9269 2.54501 17.0982 2.44606 17.289 2.41337C17.289 2.23561 17.3023 2.05766 17.289 1.8799L17.2561 1.86664H16.94L16.92 1.84703L16.9333 1.64948L17.2825 1.63622C17.2957 1.53091 17.2825 1.41234 17.2957 1.30684C17.3549 1.28705 17.4341 1.29377 17.5131 1.30031L17.5198 1.63568Z" fill="#EFC460"/>
<path fill-rule="evenodd" clip-rule="evenodd" d="M16.861 2.82131C16.9663 2.90048 16.9994 3.05191 16.9598 3.18356C16.9004 3.29559 16.7886 3.39437 16.6698 3.40762C16.5184 3.4009 16.38 3.33517 16.3274 3.20335C16.2945 3.12418 16.2812 3.03212 16.3206 2.95295C16.3602 2.83438 16.4723 2.7554 16.5974 2.74214C16.6963 2.73579 16.7753 2.76193 16.861 2.82131ZM18.4416 2.96621C18.4747 3.08478 18.4551 3.22314 18.3761 3.32192C18.3038 3.38111 18.2179 3.42069 18.1193 3.42069C18.0204 3.42069 17.9481 3.36786 17.8885 3.30212C17.8488 3.25828 17.8222 3.20416 17.8117 3.14592C17.8013 3.08768 17.8074 3.02768 17.8294 2.97274C17.8755 2.84764 18.0073 2.74886 18.1457 2.7554C18.264 2.76193 18.4024 2.8411 18.4416 2.96621ZM19.3312 2.99254C19.3575 3.07806 19.3642 3.18356 19.3245 3.26908C19.272 3.3615 19.1861 3.43377 19.0939 3.45356C18.9622 3.47989 18.8304 3.42723 18.7579 3.32845C18.6788 3.24947 18.6788 3.13743 18.6987 3.03212C18.7381 2.9003 18.87 2.80134 19.0083 2.79498C19.1269 2.79498 19.2653 2.86071 19.3312 2.99254Z" fill="black"/>
<path fill-rule="evenodd" clip-rule="evenodd" d="M16.8281 2.90689C16.8873 2.95972 16.8873 3.05197 16.8741 3.13095C16.8517 3.20009 16.8048 3.25866 16.7423 3.29564C16.6698 3.32851 16.5843 3.31543 16.5251 3.2891C16.4959 3.2758 16.4697 3.25665 16.4482 3.23286C16.4267 3.20907 16.4103 3.18112 16.4 3.15074C16.3737 3.07158 16.3802 2.98605 16.4396 2.92014C16.5251 2.79503 16.7161 2.79503 16.8281 2.90689ZM18.33 2.9334C18.3761 2.98624 18.3892 3.06522 18.3761 3.14421C18.3563 3.21666 18.2969 3.28257 18.2377 3.31543C18.1585 3.32851 18.0863 3.35484 18.0267 3.30872C17.9412 3.27585 17.9018 3.19668 17.9018 3.1177C17.8884 3.02546 17.9082 2.94647 17.9873 2.89363C18.0863 2.80157 18.2377 2.83462 18.33 2.9334ZM19.2059 2.95972C19.2453 3.01238 19.2718 3.08483 19.2651 3.16382C19.2441 3.23881 19.1975 3.30409 19.1334 3.3483C19.0675 3.38788 18.9884 3.37481 18.9292 3.36155C18.8569 3.32851 18.8041 3.26913 18.7841 3.2034C18.7578 3.10462 18.7777 2.99259 18.8763 2.93321C18.9624 2.85423 19.1205 2.86748 19.2059 2.95972Z" fill="white"/>
<path fill-rule="evenodd" clip-rule="evenodd" d="M16.064 3.01232C16.1365 3.11091 16.1563 3.26253 16.0969 3.3811C16.0245 3.4668 15.9388 3.53907 15.8334 3.54579C15.7083 3.55251 15.5898 3.49295 15.5306 3.38764C15.4777 3.31537 15.4712 3.20987 15.491 3.12417C15.5306 2.99253 15.6622 2.89357 15.8006 2.88049C15.8994 2.88067 15.9916 2.93333 16.064 3.01232Z" fill="black"/>
<path fill-rule="evenodd" clip-rule="evenodd" d="M15.9651 3.03217C16.0311 3.09154 16.0509 3.17707 16.0376 3.26913C16.0243 3.34158 15.9586 3.41421 15.8992 3.44707C15.8333 3.4734 15.7345 3.46686 15.6819 3.42074C15.616 3.37462 15.5633 3.30217 15.57 3.21647C15.57 3.12423 15.616 3.03852 15.7082 2.99259C15.7808 2.95318 15.8994 2.95972 15.9651 3.03217Z" fill="white"/>
<path fill-rule="evenodd" clip-rule="evenodd" d="M20.148 3.34171C20.181 3.42742 20.181 3.53927 20.1416 3.61843C20.0757 3.74372 19.9306 3.81599 19.799 3.80292C19.6933 3.78966 19.5947 3.72357 19.5486 3.63169C19.4894 3.52619 19.4957 3.36804 19.5816 3.26926C19.6608 3.15741 19.8122 3.11801 19.95 3.16395C20.0227 3.19681 20.1086 3.26254 20.148 3.34171ZM15.2341 3.26908C15.2803 3.34153 15.3264 3.41416 15.3131 3.51294C15.2999 3.61172 15.2472 3.70396 15.1682 3.76315C15.1151 3.79703 15.0534 3.81503 14.9905 3.81503C14.9275 3.81503 14.8658 3.79703 14.8127 3.76315C14.7595 3.72952 14.7175 3.68099 14.6917 3.62362C14.6659 3.56624 14.6576 3.50256 14.6678 3.44049C14.6743 3.34171 14.7333 3.25601 14.8258 3.20335C14.9509 3.1309 15.1352 3.14416 15.2341 3.26908Z" fill="black"/>
<path fill-rule="evenodd" clip-rule="evenodd" d="M20.0159 3.30231C20.0687 3.36804 20.1018 3.467 20.0754 3.55924C20.0293 3.65802 19.9304 3.72375 19.8314 3.72375C19.7395 3.71721 19.6536 3.67781 19.6271 3.59882C19.5814 3.52637 19.5814 3.4276 19.6271 3.36168C19.6473 3.28923 19.7197 3.24311 19.7987 3.22986C19.8777 3.22986 19.95 3.24293 20.0159 3.30231ZM15.1484 3.30231C15.2077 3.35496 15.2208 3.42741 15.2275 3.50658C15.2143 3.5921 15.1551 3.66455 15.0892 3.71739C15.0036 3.7439 14.9114 3.73718 14.839 3.67799C14.7863 3.62515 14.7467 3.56596 14.7532 3.49351C14.7402 3.41452 14.7928 3.35515 14.839 3.30249C14.9245 3.22986 15.0628 3.20988 15.1484 3.30231Z" fill="white"/>
<path fill-rule="evenodd" clip-rule="evenodd" d="M17.7305 3.71055C17.77 3.783 17.783 3.88196 17.7569 3.96748C17.7171 4.09258 17.5789 4.18483 17.4538 4.19808C17.3287 4.19154 17.1904 4.13889 17.1379 4.02032C17.0916 3.93461 17.0785 3.80951 17.1312 3.7238C17.1773 3.62521 17.2761 3.55929 17.3816 3.53932C17.4502 3.52899 17.5204 3.53985 17.5828 3.57044C17.6451 3.60103 17.6967 3.64991 17.7305 3.71055Z" fill="black"/>
<path fill-rule="evenodd" clip-rule="evenodd" d="M17.6382 3.73035C17.678 3.78954 17.6843 3.8885 17.6647 3.96749C17.6382 4.02014 17.5855 4.05319 17.5461 4.09259C17.4704 4.11799 17.3878 4.11331 17.3154 4.07952C17.2362 4.0334 17.1902 3.95441 17.1902 3.87525C17.1837 3.783 17.2362 3.69748 17.3221 3.65136C17.4274 3.5987 17.5659 3.6185 17.6382 3.73035Z" fill="white"/>
<path fill-rule="evenodd" clip-rule="evenodd" d="M20.8724 3.82913C20.9185 3.94116 20.8989 4.0926 20.8263 4.18484C20.7142 4.28362 20.5826 4.32974 20.4442 4.28362C20.352 4.25057 20.2797 4.16505 20.253 4.08588C20.2136 3.96731 20.2332 3.83567 20.3257 3.74996C20.3656 3.70214 20.4188 3.66723 20.4786 3.64964C20.5384 3.63206 20.6021 3.6326 20.6616 3.65119C20.7409 3.69095 20.8263 3.73707 20.8724 3.82913ZM14.549 3.9083C14.5753 3.97403 14.5884 4.07299 14.562 4.15197C14.529 4.23768 14.45 4.31666 14.371 4.35625C14.2459 4.39583 14.101 4.37604 14.0217 4.29034C13.9231 4.19809 13.877 4.04648 13.9296 3.92137C13.9757 3.80298 14.0811 3.73689 14.1998 3.7171C14.3382 3.70402 14.4832 3.77647 14.549 3.9083Z" fill="black"/>
<path fill-rule="evenodd" clip-rule="evenodd" d="M20.8065 3.895C20.8196 3.95438 20.8065 4.02665 20.7867 4.08602C20.7279 4.16519 20.6484 4.21113 20.563 4.21785C20.4775 4.21785 20.4116 4.17844 20.3722 4.12579C20.3456 4.09709 20.3273 4.06173 20.3192 4.02347C20.3111 3.98521 20.3134 3.94546 20.3261 3.90844C20.3388 3.83599 20.3983 3.76336 20.4775 3.74393C20.609 3.68419 20.7473 3.7699 20.8065 3.895Z" fill="white"/>
<path fill-rule="evenodd" clip-rule="evenodd" d="M20.2071 4.6195C20.7935 5.14644 21.0437 5.87111 21.0175 6.68784L20.7935 6.89194C20.6353 6.87886 20.4969 6.91173 20.3916 7.02376C20.26 7.20824 20.1941 7.43884 20.2335 7.66945C20.2732 7.84721 20.4445 7.96578 20.6222 7.99211C20.6159 8.09089 20.5236 8.18313 20.4577 8.26211C20.3879 8.30886 20.3088 8.3401 20.2259 8.35372C20.1429 8.36735 20.058 8.36304 19.9769 8.3411C19.7991 8.3017 19.6542 8.12375 19.6212 7.95906C19.5687 7.82724 19.661 7.72846 19.6673 7.61007C19.6704 7.53424 19.6552 7.45878 19.6231 7.39001C19.591 7.32123 19.5429 7.26115 19.4828 7.21478C19.3708 7.116 19.2063 7.116 19.081 7.16212C18.9296 7.22132 18.7912 7.37293 18.7912 7.53744C18.7649 7.62968 18.8306 7.72192 18.7781 7.80745C18.6792 7.97867 18.4947 8.11703 18.304 8.10378C18.1328 8.11703 17.9877 8.02479 17.8888 7.90622C17.8165 7.81398 17.7767 7.70849 17.7902 7.59664C17.9614 7.60317 18.1653 7.58356 18.2906 7.41215C18.4093 7.26072 18.3632 7.03012 18.3698 6.85235C18.35 6.70745 18.2116 6.56909 18.0867 6.51644L17.9416 6.48993C17.9285 6.35156 17.8232 6.23299 17.7043 6.16726L17.5265 6.10153V6.08828C17.6649 6.04869 17.8032 5.92359 17.8363 5.77869C17.8888 5.614 17.8032 5.4691 17.731 5.35725L17.7373 5.08053C17.8363 4.9487 17.8888 4.7644 17.8165 4.61279L17.731 4.45463L17.7373 4.17137C17.8232 4.05934 17.8561 3.91444 17.8494 3.7828C18.7382 3.6842 19.5418 4.02666 20.2071 4.6195ZM17.0127 3.79623C17.0127 3.9148 17.0455 4.02012 17.0849 4.12562L17.0784 4.56685C16.9862 4.69867 17.0192 4.89623 17.0849 5.03459L17.0784 5.46946C17.0059 5.57478 16.9994 5.75272 17.0719 5.87111C17.118 5.98314 17.2429 6.04234 17.3484 6.08846C17.2957 6.12151 17.2166 6.12804 17.1639 6.15437C17.0125 6.20031 16.9268 6.35193 16.8939 6.48357C16.7161 6.58888 16.5052 6.69438 16.4394 6.89865C16.446 7.06988 16.38 7.28723 16.5184 7.41905C16.6303 7.58374 16.8411 7.61007 17.0256 7.60354C17.019 7.78802 16.8937 7.9725 16.7225 8.04477C16.5447 8.12393 16.3405 8.09089 16.189 8.00536C16.0772 7.92638 16.0113 7.81435 15.9782 7.70231C15.9915 7.55088 15.9717 7.39272 15.8727 7.28087C15.8178 7.22342 15.7486 7.18157 15.6722 7.15959C15.5958 7.13761 15.5149 7.13629 15.4378 7.15577C15.2929 7.19535 15.135 7.32699 15.1152 7.48515C15.0823 7.63658 15.1284 7.78148 15.2207 7.90005C15.2009 8.09107 15.0823 8.28881 14.8848 8.348C14.6674 8.40719 14.4564 8.36107 14.3117 8.20292C14.2523 8.13719 14.1997 8.06474 14.193 7.98575C14.3444 7.94617 14.4958 7.80127 14.5289 7.64312C14.5356 7.41923 14.4829 7.19517 14.3444 7.02394C14.2391 6.9317 14.1073 6.87904 13.9689 6.89884L13.7318 6.6419C13.725 5.66702 14.2719 4.85682 15.0558 4.24418C15.5499 3.86887 16.1821 3.77009 16.8344 3.77662L17.0127 3.79623Z" fill="black"/>
<path fill-rule="evenodd" clip-rule="evenodd" d="M14.4239 3.88189C14.4833 3.93455 14.4898 4.02661 14.4833 4.09924C14.47 4.16515 14.4108 4.22434 14.3514 4.27046C14.279 4.30333 14.1933 4.29026 14.1276 4.27046C14.0815 4.24548 14.0445 4.20649 14.022 4.15914C13.9995 4.11178 13.9927 4.0585 14.0024 4.007C14.0092 3.93455 14.0553 3.8621 14.1208 3.82923C14.2196 3.77639 14.3447 3.8029 14.4239 3.88189ZM19.6802 4.3233C20.2008 4.63943 20.6681 5.16636 20.8263 5.75268C19.95 5.23881 18.8502 5.08738 17.8228 5.27186V5.10045C17.9281 4.97535 17.9612 4.7974 17.9151 4.63925C17.8886 4.57352 17.8622 4.51414 17.8228 4.4613V4.17822C17.902 4.08598 17.9281 3.97395 17.9412 3.85556C18.5669 3.80926 19.1667 3.98067 19.6802 4.3233ZM16.9335 3.86864C16.9402 3.96741 16.973 4.05947 16.9994 4.15843C16.9796 4.32966 17.0257 4.54047 16.9465 4.70516C16.9269 4.81719 16.9531 4.93576 16.9994 5.04761L16.9927 5.2715C16.0506 5.11334 15.0298 5.2123 14.2064 5.63392C14.1274 5.65353 14.0549 5.70637 13.989 5.74596C14.1404 5.21902 14.5621 4.79722 14.9835 4.40883C15.5106 3.94762 16.2286 3.83577 16.9335 3.86864Z" fill="white"/>
<path fill-rule="evenodd" clip-rule="evenodd" d="M22.2492 4.36272C22.3481 4.45496 22.3481 4.61293 22.3084 4.73804C22.2292 4.84353 22.1175 4.9158 21.9921 4.9158C21.8604 4.90908 21.7353 4.83028 21.6959 4.71824C21.6561 4.63272 21.6498 4.52069 21.6959 4.44152C21.7551 4.33621 21.8541 4.26376 21.9725 4.25722C22.0712 4.24415 22.1702 4.28373 22.2492 4.36272ZM13.0868 4.38905C13.1527 4.45496 13.1923 4.5472 13.1854 4.64598C13.1789 4.73804 13.1395 4.81067 13.0801 4.87658C13.0009 4.94249 12.8891 4.96228 12.7903 4.94903C12.6915 4.93596 12.6058 4.86986 12.5662 4.79088C12.5266 4.71189 12.5005 4.60639 12.5399 4.52741C12.5729 4.4023 12.6981 4.31006 12.8232 4.2968C12.9156 4.2968 13.0144 4.32332 13.0868 4.38905ZM21.4059 4.48782C21.4457 4.55355 21.439 4.65905 21.4257 4.73804C21.386 4.82505 21.319 4.89676 21.2349 4.94231C21.149 4.95538 21.0504 4.97518 20.9778 4.92905C20.8594 4.86314 20.7866 4.73804 20.8 4.61947C20.7933 4.48782 20.8855 4.37579 21.0043 4.32313C21.1559 4.26394 21.3271 4.33621 21.4059 4.48782Z" fill="black"/>
<path fill-rule="evenodd" clip-rule="evenodd" d="M22.1765 4.4154C22.223 4.47459 22.256 4.55376 22.2361 4.63928C22.2163 4.69866 22.1765 4.76439 22.1307 4.79726C22.0385 4.8501 21.9265 4.84356 21.8542 4.78418C21.7816 4.72499 21.7485 4.65236 21.7552 4.56684C21.7552 4.49439 21.8014 4.42847 21.8673 4.38907C21.9526 4.32334 22.1041 4.32334 22.1765 4.4154Z" fill="white"/>
<path fill-rule="evenodd" clip-rule="evenodd" d="M13.9298 4.48787C13.9956 4.56032 14.0219 4.66563 14.009 4.77113C13.9825 4.8897 13.8839 4.99501 13.7719 5.02806C13.6796 5.04767 13.5676 5.03459 13.4951 4.98194C13.4227 4.91602 13.3568 4.83686 13.3502 4.7448C13.3433 4.67758 13.3573 4.60987 13.3904 4.55092C13.4234 4.49196 13.4738 4.44464 13.5347 4.41542C13.6664 4.34969 13.818 4.38237 13.9298 4.48787Z" fill="black"/>
<path fill-rule="evenodd" clip-rule="evenodd" d="M13.0407 4.4681C13.1 4.52748 13.1066 4.63279 13.0868 4.71831C13.0605 4.78422 13.0011 4.82381 12.9354 4.86321C12.8233 4.89626 12.7178 4.86321 12.6519 4.77751C12.5927 4.68527 12.5862 4.5469 12.6652 4.46792C12.7047 4.4218 12.7574 4.39565 12.8166 4.38893C12.9023 4.37604 12.9815 4.40219 13.0407 4.4681ZM21.314 4.48789C21.3534 4.53383 21.3534 4.613 21.3534 4.68545C21.3336 4.75136 21.2808 4.81055 21.2283 4.85014C21.1691 4.86975 21.1032 4.88954 21.0506 4.86975C20.9846 4.85014 20.9255 4.7973 20.9055 4.73792C20.8724 4.67219 20.8792 4.57977 20.9118 4.52058C20.9516 4.44141 21.0239 4.37568 21.1228 4.38875C21.1953 4.38911 21.2612 4.4287 21.314 4.48789Z" fill="white"/>
<path fill-rule="evenodd" clip-rule="evenodd" d="M17.7371 4.63273C17.7702 4.7119 17.7832 4.83029 17.7438 4.91599C17.6977 4.99516 17.6251 5.06761 17.5463 5.09375C17.4212 5.1268 17.2826 5.10047 17.1971 5.01459C17.1247 4.94886 17.1049 4.86315 17.0985 4.77745C17.0985 4.63255 17.1971 4.50744 17.3356 4.46786C17.4867 4.41538 17.6579 4.48783 17.7371 4.63273Z" fill="black"/>
<path fill-rule="evenodd" clip-rule="evenodd" d="M13.8771 4.56035C13.91 4.61301 13.9298 4.68546 13.9231 4.75137C13.9033 4.82364 13.8572 4.89627 13.7913 4.93585C13.7123 4.96236 13.62 4.96872 13.5541 4.91606C13.5169 4.89407 13.4866 4.86199 13.4668 4.82353C13.447 4.78508 13.4385 4.7418 13.4423 4.69872C13.4488 4.62627 13.4686 4.55382 13.5409 4.51423C13.6335 4.4416 13.7982 4.4485 13.8771 4.56035ZM17.6318 4.62627C17.6716 4.68564 17.6977 4.7777 17.6716 4.85687C17.6381 4.92932 17.5791 5.00177 17.5067 5.02156C17.4273 5.04135 17.3551 5.02156 17.2959 4.98869C17.2234 4.93604 17.1773 4.85033 17.1904 4.76481C17.1838 4.68564 17.2363 4.61991 17.3024 4.57379C17.401 4.51423 17.5461 4.52077 17.6318 4.62627Z" fill="white"/>
<path fill-rule="evenodd" clip-rule="evenodd" d="M23.0922 4.77765C23.1253 4.86335 23.112 4.96867 23.0728 5.05419C22.9936 5.16622 22.8555 5.24521 22.7171 5.21906C22.6248 5.19909 22.5391 5.14661 22.5061 5.06763C22.4405 4.98846 22.4338 4.86989 22.4734 4.78418C22.5128 4.65908 22.6312 4.56684 22.7632 4.56684C22.8947 4.55376 23.0198 4.65254 23.0922 4.77765ZM12.3623 4.78418C12.3952 4.86335 12.4083 4.96867 12.3819 5.05419C12.3293 5.18601 12.1911 5.265 12.0527 5.27154C11.9472 5.25846 11.8419 5.20562 11.7827 5.1201C11.7299 5.03458 11.7103 4.92908 11.7431 4.83684C11.7827 4.71827 11.9013 4.63275 12.0264 4.61296C12.158 4.59317 12.2831 4.66562 12.3623 4.78418Z" fill="black"/>
<path fill-rule="evenodd" clip-rule="evenodd" d="M22.9606 4.73811C23.0067 4.7973 23.0265 4.88301 23.0067 4.96871C22.9767 5.0394 22.9232 5.09757 22.8553 5.1334C22.7432 5.15319 22.6443 5.12015 22.5787 5.03462C22.5326 4.96871 22.5192 4.86993 22.5589 4.7973C22.5787 4.71832 22.6643 4.67891 22.7434 4.6524C22.8155 4.63933 22.8947 4.67891 22.9606 4.73811ZM12.2568 4.78423C12.303 4.83689 12.316 4.91605 12.3095 4.99504C12.283 5.07403 12.2107 5.15319 12.1383 5.17952C12.0591 5.19913 11.9801 5.17298 11.9207 5.1334C11.8548 5.07403 11.7956 5.00829 11.822 4.91605C11.822 4.85032 11.8679 4.79095 11.9207 4.75154C12.0132 4.66566 12.1778 4.68545 12.2568 4.78423Z" fill="white"/>
<path fill-rule="evenodd" clip-rule="evenodd" d="M23.8298 5.27824C23.8628 5.36394 23.8628 5.48251 23.8167 5.56822C23.7445 5.67353 23.6259 5.7527 23.5008 5.73944C23.4085 5.72619 23.3296 5.69986 23.2834 5.63395C23.2524 5.60055 23.2288 5.56104 23.214 5.51794C23.1992 5.47484 23.1936 5.42913 23.1975 5.38373C23.1999 5.33017 23.2164 5.27818 23.2454 5.23305C23.2743 5.18793 23.3147 5.15127 23.3624 5.1268C23.4347 5.08068 23.5333 5.06761 23.6259 5.09376C23.7126 5.13071 23.7844 5.19567 23.8298 5.27824ZM21.8406 5.27824C21.8671 5.36394 21.8737 5.48251 21.8276 5.56822C21.7814 5.66046 21.6959 5.70658 21.6169 5.73944C21.531 5.74598 21.4194 5.75252 21.3602 5.69986C21.2351 5.62087 21.1757 5.48905 21.202 5.35741C21.2214 5.25863 21.2743 5.17292 21.3665 5.1268C21.4499 5.08648 21.5456 5.0797 21.6338 5.10789C21.722 5.13607 21.7961 5.19705 21.8406 5.27824ZM11.5587 5.23212C11.6511 5.33761 11.6511 5.50884 11.5982 5.63395C11.5389 5.73944 11.4205 5.7921 11.3084 5.78538C11.1701 5.77866 11.045 5.67335 11.0121 5.54824C10.9791 5.40988 11.0252 5.27152 11.1439 5.19253C11.2556 5.0874 11.4532 5.10701 11.5587 5.23212ZM13.5413 5.3111C13.6137 5.40988 13.6205 5.56132 13.5544 5.67335C13.4886 5.77213 13.3833 5.81825 13.2713 5.82478C13.2223 5.82547 13.1739 5.81519 13.1294 5.7947C13.085 5.77422 13.0456 5.74405 13.0144 5.7064C12.9419 5.62741 12.9287 5.52191 12.9484 5.42314C12.9615 5.3309 13.0342 5.23865 13.1197 5.19907C13.2713 5.13334 13.4425 5.16639 13.5413 5.3111Z" fill="black"/>
<path fill-rule="evenodd" clip-rule="evenodd" d="M23.7575 5.32453C23.7706 5.3968 23.7575 5.46271 23.7381 5.52862C23.6785 5.6274 23.5799 5.66698 23.494 5.66045C23.4149 5.64719 23.3426 5.588 23.3163 5.52862C23.2634 5.45617 23.2765 5.37047 23.3163 5.29802C23.3361 5.21232 23.4283 5.17945 23.5071 5.1662C23.6061 5.15984 23.705 5.22557 23.7575 5.32453ZM21.7159 5.2519C21.762 5.30456 21.7814 5.38372 21.7751 5.46271C21.7553 5.52862 21.7091 5.58782 21.6563 5.63394C21.5641 5.67334 21.439 5.67334 21.3665 5.60743C21.2873 5.52844 21.2612 5.4362 21.301 5.33089C21.3204 5.24518 21.4059 5.17945 21.4985 5.17291C21.5839 5.15984 21.6563 5.19252 21.7159 5.2519Z" fill="white"/>
<path fill-rule="evenodd" clip-rule="evenodd" d="M22.7432 5.63397C23.1383 5.8909 23.5071 6.26622 23.705 6.71417C23.9156 7.18191 24.0276 7.69577 24.1199 8.22253C24.0868 8.26865 24.0146 8.25558 23.9748 8.3017C23.7773 8.42662 23.7378 8.64415 23.6719 8.84189C23.6454 9.02637 23.7511 9.19088 23.9156 9.27658L24.0801 9.34903V9.38208C23.9223 9.50065 23.7244 9.54677 23.5399 9.49393C23.3754 9.44127 23.224 9.30291 23.1711 9.14494C23.1448 9.04616 23.125 8.93413 23.1648 8.8486C23.2634 8.7235 23.3032 8.56535 23.2634 8.40719C23.2173 8.26883 23.0856 8.15026 22.9605 8.1174C22.8024 8.06474 22.6311 8.11086 22.5325 8.22943C22.4205 8.32149 22.3942 8.45331 22.3875 8.58496C22.2424 8.74311 22.0187 8.79577 21.8275 8.76272C21.6497 8.72985 21.4916 8.59149 21.4257 8.43352C21.3926 8.36107 21.3732 8.2819 21.3859 8.20274C21.5508 8.24886 21.7881 8.3017 21.9459 8.16333C22.1107 8.01844 22.104 7.80091 22.1632 7.61007C22.1632 7.43884 22.0777 7.28723 21.9459 7.22131C21.8473 7.19499 21.9332 7.08967 21.9065 7.02376C21.8796 6.90039 21.8065 6.792 21.7022 6.72089V6.70763C21.8734 6.71417 22.0515 6.62865 22.1371 6.46396C22.203 6.32578 22.1765 6.12804 22.0846 6.01619C21.9856 5.90416 21.854 5.85804 21.7158 5.86476C21.6232 5.75926 21.7881 5.77905 21.8211 5.71332C21.946 5.60129 21.9726 5.40373 21.9264 5.2523C21.9134 5.23251 21.9001 5.21943 21.9197 5.20618C22.1832 5.33764 22.4797 5.44295 22.7432 5.63397Z" fill="black"/>
<path fill-rule="evenodd" clip-rule="evenodd" d="M11.5321 5.33763C11.5652 5.40355 11.5652 5.50904 11.5321 5.58131C11.5113 5.62189 11.4789 5.65541 11.4391 5.67767C11.3993 5.69992 11.3538 5.70992 11.3083 5.70642C11.2293 5.6997 11.1501 5.6405 11.1172 5.58131C11.1015 5.54857 11.0928 5.51291 11.0917 5.47661C11.0905 5.44032 11.0969 5.40418 11.1105 5.3705C11.1303 5.29151 11.2093 5.2256 11.295 5.21253C11.394 5.19909 11.4795 5.25193 11.5321 5.33763ZM13.4556 5.33092C13.4885 5.37704 13.5215 5.42969 13.5215 5.50214C13.5085 5.57296 13.4767 5.63896 13.4293 5.69316C13.3699 5.73275 13.2909 5.746 13.225 5.73928C13.1393 5.72603 13.0605 5.65358 13.0405 5.58113C13.0142 5.51522 13.0142 5.42969 13.0538 5.37686C13.0717 5.33959 13.0997 5.3081 13.1346 5.28598C13.1695 5.26386 13.21 5.252 13.2513 5.25175C13.3172 5.24539 13.3964 5.27172 13.4556 5.33092Z" fill="white"/>
<path fill-rule="evenodd" clip-rule="evenodd" d="M20.8657 5.89091C20.9118 6.14131 20.9449 6.40459 20.9316 6.66824L20.7539 6.80661C20.5432 6.78681 20.3651 6.88559 20.2661 7.05028C20.1806 7.28088 20.0292 7.59047 20.2137 7.82743C20.2661 7.93946 20.3849 8.01191 20.5102 8.04478C20.4771 8.14356 20.3718 8.22944 20.2796 8.26231C20.1214 8.31496 19.9498 8.26884 19.8447 8.17007C19.7327 8.07782 19.6798 7.94618 19.6996 7.81436C19.7588 7.676 19.7719 7.50459 19.7127 7.36641C19.6335 7.19518 19.4429 7.04374 19.258 7.05028C19.0541 7.04356 18.8829 7.1358 18.7776 7.30721C18.6917 7.4256 18.6917 7.59047 18.7049 7.73537C18.6458 7.86048 18.5272 7.9923 18.3823 8.01863C18.2178 8.0317 18.0533 7.99866 17.961 7.86048C17.9149 7.80764 17.8751 7.74191 17.8819 7.67599C18.0464 7.68253 18.2245 7.63006 18.3362 7.49151C18.4943 7.30721 18.4351 7.05682 18.4415 6.82622C18.4152 6.64845 18.2637 6.49702 18.1125 6.43764L18.0202 6.41803C17.9741 6.27949 17.8621 6.14149 17.7304 6.08211C17.7932 6.03345 17.8445 5.97168 17.8809 5.90111C17.9173 5.83055 17.9378 5.75289 17.9411 5.67357C17.9343 5.555 17.8882 5.4495 17.8357 5.36398C18.8571 5.1795 20.0029 5.3046 20.8657 5.89091ZM16.9927 5.36398C17.0058 5.45622 16.9333 5.53521 16.94 5.63416C16.9333 5.80539 16.986 5.96336 17.1309 6.06886C17.098 6.08865 17.0519 6.10826 17.019 6.13459C16.907 6.22701 16.8411 6.32579 16.8017 6.44418C16.6172 6.54314 16.4196 6.65517 16.3472 6.8658C16.3472 7.08297 16.3011 7.35987 16.4921 7.51784C16.5474 7.57398 16.6145 7.61725 16.6884 7.64459C16.7624 7.67192 16.8415 7.68264 16.92 7.67599C16.907 7.78803 16.8149 7.88027 16.7225 7.95272C16.5643 8.02517 16.3602 8.02517 16.2219 7.92639C16.1562 7.85394 16.0637 7.77495 16.0637 7.67599C16.0833 7.48516 16.0309 7.30068 15.8793 7.17557C15.7409 7.06354 15.5499 7.02395 15.3852 7.08315C15.2005 7.12927 15.0558 7.32029 15.0362 7.49823C15.0031 7.66274 15.0691 7.8011 15.1348 7.93964C15.1019 8.07129 15.0162 8.22272 14.8713 8.26884C14.7395 8.30843 14.5683 8.30189 14.4562 8.22272C14.384 8.16353 14.3246 8.11087 14.3048 8.0317C14.4562 7.97905 14.5683 7.82089 14.6144 7.67599C14.6409 7.42578 14.5617 7.19518 14.4432 7.00416C14.3311 6.87234 14.1732 6.80661 14.0019 6.81314L13.818 6.60869C13.8245 6.35847 13.8509 6.1148 13.9364 5.89073C14.1407 5.7393 14.3778 5.64034 14.6149 5.54828H14.6347C15.379 5.2652 16.1892 5.23887 16.9927 5.36398Z" fill="#CE3829"/>
<path fill-rule="evenodd" clip-rule="evenodd" d="M12.8497 5.49577C12.8497 5.60763 12.8958 5.70659 12.975 5.79211C13.0013 5.87763 13.2121 5.8513 13.1199 5.97641C12.9421 5.95008 12.784 6.02925 12.6983 6.17396C12.6193 6.29907 12.6323 6.50316 12.7179 6.62845C12.7838 6.70744 12.8762 6.76681 12.975 6.79296C12.8958 6.90499 12.8299 7.0301 12.8564 7.18825C12.718 7.25398 12.5799 7.39234 12.5799 7.56357C12.5733 7.72826 12.6258 7.87988 12.6786 8.03131C12.7378 8.14334 12.8631 8.24866 13.0013 8.26191C13.1529 8.28152 13.2911 8.21579 13.4362 8.18947C13.4758 8.40028 13.357 8.59783 13.1792 8.70986C13.0146 8.80864 12.8037 8.81536 12.626 8.74291C12.5272 8.677 12.4152 8.59783 12.3758 8.48598C12.3427 8.33454 12.198 8.22233 12.0662 8.17639C11.996 8.16007 11.923 8.15928 11.8524 8.17409C11.7819 8.18889 11.7154 8.21893 11.6576 8.2621C11.5391 8.35434 11.4864 8.51231 11.5062 8.67046C11.5062 8.78903 11.5786 8.88127 11.6642 8.96679C11.6709 9.14456 11.5984 9.30271 11.4666 9.428C11.2821 9.5729 11.0187 9.56636 10.8276 9.46087V9.44107C10.9856 9.34883 11.1305 9.19086 11.1438 9.0062C11.1174 8.82171 11.0317 8.65721 10.9593 8.49252C10.9066 8.41335 10.8276 8.38067 10.7419 8.36069C10.7879 7.76784 10.9526 7.20786 11.1964 6.68764C11.3611 6.33194 11.6181 5.98276 11.967 5.77867C12.2436 5.55479 12.5534 5.40971 12.8762 5.29114C12.8827 5.35741 12.8431 5.42333 12.8497 5.49577ZM17.6715 5.4364C17.7633 5.5221 17.7964 5.67354 17.7503 5.79864C17.7172 5.89089 17.6186 5.9568 17.5329 5.98966C17.3946 6.02271 17.2429 5.98313 17.1641 5.86456C17.1349 5.82673 17.115 5.7826 17.1058 5.7357C17.0967 5.68879 17.0986 5.6404 17.1115 5.59437C17.118 5.50213 17.197 5.42968 17.2762 5.38374C17.388 5.32455 17.566 5.3309 17.6715 5.4364Z" fill="black"/>
<path fill-rule="evenodd" clip-rule="evenodd" d="M23.7181 6.97115C23.2702 6.66828 22.7694 6.51013 22.2691 6.39809C22.2889 6.20707 22.2163 6.02931 22.0912 5.89749C22.0189 5.85137 21.9461 5.81178 21.8739 5.79217C21.9922 5.68014 22.0451 5.5287 22.0451 5.36401C22.7432 5.62748 23.4941 6.22015 23.7181 6.97115ZM12.764 5.43646C12.7375 5.62094 12.8364 5.77892 12.955 5.89749C12.797 5.93053 12.6389 6.04892 12.5862 6.21361L12.5532 6.39156C12.0725 6.49705 11.5915 6.62216 11.1897 6.91849C11.3083 6.55625 11.5452 6.18746 11.888 5.95014C12.1455 5.72584 12.4425 5.55163 12.764 5.43646ZM17.6053 5.48912C17.658 5.5485 17.6909 5.63402 17.6778 5.72626C17.6676 5.76273 17.6501 5.79674 17.6263 5.82619C17.6025 5.85564 17.573 5.8799 17.5394 5.89749C17.4604 5.93053 17.3617 5.91728 17.2958 5.87769C17.2233 5.82486 17.1837 5.74605 17.1903 5.66035C17.1968 5.57464 17.2429 5.48912 17.3286 5.45607C17.3725 5.43218 17.4227 5.42253 17.4723 5.42845C17.5218 5.43437 17.5684 5.45557 17.6053 5.48912Z" fill="white"/>
<path fill-rule="evenodd" clip-rule="evenodd" d="M24.4097 5.94354C24.4626 6.03578 24.4558 6.17414 24.4164 6.27946C24.3505 6.37824 24.2252 6.45069 24.1069 6.43761C24.0012 6.43761 23.9156 6.38496 23.8628 6.31251C23.8036 6.23352 23.7706 6.14782 23.8036 6.04904C23.8167 5.95698 23.8695 5.86474 23.9618 5.82515C24.1001 5.73945 24.3175 5.77885 24.4097 5.94354ZM11.0119 5.97641C11.0711 6.05558 11.0711 6.16743 11.0515 6.27274C11.0184 6.35191 10.946 6.42418 10.8603 6.46376C10.7748 6.49009 10.6562 6.49681 10.577 6.45722C10.4519 6.39785 10.386 6.2662 10.3993 6.13438C10.3993 6.0356 10.4519 5.9499 10.5376 5.8907C10.6758 5.78557 10.9064 5.81844 11.0119 5.97641Z" fill="black"/>
<path fill-rule="evenodd" clip-rule="evenodd" d="M24.3112 5.95004C24.3637 6.00924 24.3767 6.1082 24.3569 6.1939C24.3348 6.24866 24.2956 6.29487 24.2453 6.32572C24.1661 6.37166 24.074 6.35859 24.0079 6.33226C23.9026 6.27289 23.8565 6.16103 23.8896 6.05572C23.8959 5.98981 23.942 5.93061 24.0079 5.89757C24.1002 5.83147 24.2253 5.86452 24.3112 5.95004ZM10.9328 6.02249C10.9854 6.07515 10.9789 6.16739 10.9658 6.24638C10.946 6.30575 10.8936 6.35841 10.834 6.39127C10.7352 6.42414 10.6101 6.40435 10.5377 6.32554C10.4718 6.24638 10.4585 6.12127 10.5179 6.02903C10.5575 5.95658 10.6363 5.92353 10.7089 5.91064C10.7946 5.9041 10.8801 5.95004 10.9328 6.02249Z" fill="white"/>
<path fill-rule="evenodd" clip-rule="evenodd" d="M22.0579 6.1215C22.0977 6.20049 22.1108 6.29927 22.0845 6.39151C22.0316 6.51008 21.9196 6.59578 21.8075 6.61539L21.6367 6.5956C21.5047 6.52315 21.3994 6.40458 21.4257 6.25315C21.4257 6.16744 21.4718 6.08846 21.5444 6.0358C21.6232 5.9501 21.7551 5.93702 21.8804 5.97642C21.9526 5.98968 22.012 6.05559 22.0579 6.1215Z" fill="black"/>
<path fill-rule="evenodd" clip-rule="evenodd" d="M21.9596 6.12147C21.9859 6.1674 22.0121 6.22006 22.0188 6.28616C21.999 6.36532 21.9727 6.44413 21.9067 6.49025C21.8345 6.51676 21.7486 6.54962 21.6894 6.51676C21.6039 6.49715 21.5577 6.43123 21.5312 6.37186C21.4986 6.29941 21.5049 6.20717 21.5577 6.14798C21.5908 6.09532 21.65 6.05592 21.7159 6.04266C21.8078 6.02922 21.8804 6.06209 21.9596 6.12147Z" fill="white"/>
<path fill-rule="evenodd" clip-rule="evenodd" d="M13.3699 6.24644C13.4095 6.33868 13.3964 6.46379 13.3503 6.55621C13.2844 6.66153 13.1658 6.71418 13.0472 6.71418C12.9354 6.70111 12.8233 6.65499 12.7707 6.54967C12.7048 6.44418 12.7048 6.29256 12.7838 6.2005C12.8495 6.10191 12.9485 6.06214 13.0605 6.05579C13.1854 6.0556 13.3172 6.12152 13.3699 6.24644Z" fill="black"/>
<path fill-rule="evenodd" clip-rule="evenodd" d="M13.2713 6.24643C13.3107 6.31234 13.3172 6.4113 13.2909 6.49011C13.2382 6.56256 13.1723 6.62193 13.0866 6.63501C12.9813 6.64154 12.8891 6.57563 12.8364 6.49011C12.8101 6.43091 12.797 6.35175 12.8364 6.29255C12.8695 6.19396 12.9613 6.1344 13.0736 6.1344C13.146 6.14765 13.2184 6.17398 13.2713 6.24643Z" fill="white"/>
<path fill-rule="evenodd" clip-rule="evenodd" d="M17.8886 6.70767C17.9745 6.84604 17.9745 7.06992 17.8953 7.22154C17.8031 7.3599 17.658 7.46521 17.4935 7.48519C17.3288 7.49172 17.1706 7.45214 17.0586 7.34029C16.9269 7.18885 16.8543 6.98458 16.9335 6.79338C16.9863 6.60254 17.1772 6.45746 17.3749 6.43785C17.5855 6.41788 17.7833 6.51012 17.8886 6.70767Z" fill="black"/>
<path fill-rule="evenodd" clip-rule="evenodd" d="M23.7773 7.13581C23.8763 7.46519 23.9618 7.80111 24.0146 8.16354L24.0079 8.1964C23.7575 8.26885 23.692 8.53232 23.6128 8.73641C23.56 8.86824 23.5798 9.03946 23.6653 9.16457C23.7114 9.25681 23.8234 9.32272 23.9224 9.37538C23.8826 9.40843 23.8104 9.41496 23.7642 9.42822C23.6128 9.44783 23.4349 9.37538 23.3426 9.26353C23.2504 9.15803 23.2043 9.02639 23.244 8.88821C23.349 8.74331 23.3955 8.54576 23.3426 8.37435C23.2901 8.23599 23.1649 8.09781 23.033 8.05169C22.9545 8.01781 22.8686 8.00427 22.7834 8.01233C22.6983 8.02039 22.6165 8.04979 22.5457 8.09781C22.4724 8.14879 22.4126 8.21672 22.3713 8.29583C22.3299 8.37494 22.3084 8.46286 22.3084 8.55211C22.1438 8.68394 21.9196 8.74331 21.7417 8.64435C21.61 8.58498 21.4983 8.45333 21.4786 8.32151C21.5775 8.33476 21.7023 8.3413 21.8212 8.31497C22.1438 8.24252 22.1832 7.88028 22.2492 7.61681C22.2424 7.42579 22.1502 7.24785 21.9988 7.14253C22.0118 6.99763 21.9594 6.87253 21.8871 6.77375C22.0251 6.74088 22.1633 6.60906 22.2294 6.47742C22.7763 6.60234 23.3294 6.76703 23.7773 7.13581ZM12.797 6.81297C12.8166 6.81951 12.8497 6.83948 12.8299 6.87235C12.7772 6.95133 12.7576 7.05683 12.7576 7.15561C12.6867 7.19066 12.6256 7.24268 12.5796 7.30704C12.5336 7.37141 12.5043 7.44613 12.4941 7.52457C12.4678 7.72212 12.5533 7.88682 12.606 8.0713C12.6526 8.16037 12.7242 8.23395 12.8119 8.28308C12.8996 8.33221 12.9997 8.35478 13.1001 8.34802L13.3437 8.3019C13.3437 8.42047 13.2713 8.54558 13.166 8.62456C13.0276 8.72334 12.8299 8.73006 12.6784 8.67068C12.4215 8.59823 12.4743 8.3019 12.2701 8.18987C12.1317 8.0713 11.9409 8.05151 11.776 8.10416C11.5719 8.17007 11.4335 8.36109 11.4205 8.5719C11.4139 8.73659 11.4666 8.88149 11.5852 9.00006C11.5654 9.13171 11.539 9.26353 11.4205 9.35559C11.2954 9.44783 11.1439 9.4807 10.9989 9.43476C11.1438 9.28986 11.2821 9.0923 11.2031 8.87477C11.0976 8.67068 11.0976 8.38089 10.8407 8.30844C10.8474 7.95926 10.9527 7.64314 11.0384 7.32701L11.124 7.0768C11.5323 6.72109 12.0462 6.60906 12.5533 6.48395C12.5995 6.60234 12.6719 6.73398 12.797 6.81297Z" fill="#CE3829"/>
<path fill-rule="evenodd" clip-rule="evenodd" d="M17.8292 6.77351C17.9018 6.93166 17.869 7.14229 17.75 7.28065C17.6053 7.40576 17.401 7.43881 17.2298 7.35982C17.0849 7.28065 16.9796 7.14901 16.9927 6.97778C16.9861 6.83288 17.0323 6.69452 17.1639 6.60882C17.2692 6.52983 17.4141 6.50332 17.5592 6.53637C17.6647 6.56923 17.7764 6.66148 17.8292 6.77351Z" fill="white"/>
<path fill-rule="evenodd" clip-rule="evenodd" d="M24.805 6.78657C24.8376 6.91168 24.805 7.05004 24.7123 7.14882C24.6335 7.19494 24.5546 7.22781 24.4754 7.22781C24.3764 7.20801 24.2842 7.16843 24.225 7.08963C24.1458 6.99085 24.1328 6.83941 24.1987 6.74045C24.2646 6.64149 24.3632 6.56269 24.4885 6.56923C24.6139 6.56269 24.7454 6.65493 24.805 6.78657ZM10.6826 6.84595C10.722 6.95145 10.6759 7.06983 10.6167 7.16226C10.5245 7.24778 10.3994 7.30062 10.2743 7.26757C10.1755 7.24124 10.1029 7.14246 10.0635 7.0633C10.0106 6.93147 10.0567 6.79983 10.1425 6.71413C10.2214 6.6286 10.3533 6.60227 10.4651 6.63514C10.5441 6.66147 10.6496 6.74717 10.6826 6.84595Z" fill="black"/>
<path fill-rule="evenodd" clip-rule="evenodd" d="M24.6732 6.73393C24.7257 6.78659 24.7324 6.8723 24.7324 6.95782C24.706 7.03009 24.6401 7.10272 24.5746 7.12904C24.4887 7.15537 24.4228 7.13558 24.3569 7.10272C24.291 7.0566 24.2583 6.99722 24.2583 6.93149C24.2452 6.83271 24.2713 6.74701 24.3569 6.70089C24.4426 6.62208 24.5877 6.64841 24.6732 6.73393ZM10.5244 6.76698C10.577 6.81964 10.6101 6.89191 10.6035 6.97761C10.5903 7.05678 10.5311 7.14884 10.4521 7.17535C10.414 7.18784 10.3737 7.19194 10.3339 7.18737C10.2941 7.18279 10.2557 7.16964 10.2215 7.14884C10.136 7.06967 10.1029 6.94456 10.149 6.84578C10.1755 6.7668 10.2611 6.72068 10.3333 6.70089C10.3993 6.69453 10.4652 6.72086 10.5244 6.76698Z" fill="white"/>
<path fill-rule="evenodd" clip-rule="evenodd" d="M13.9759 7.14905C14.1207 7.3072 14.1274 7.58392 14.0288 7.77476C13.91 7.92619 13.7388 8.0119 13.561 8.0119C13.476 8.00882 13.393 7.98575 13.3186 7.94454C13.2442 7.90334 13.1806 7.84517 13.1329 7.77476C13.0472 7.64293 13.0143 7.45863 13.0802 7.31374C13.1329 7.10946 13.3304 6.98435 13.5282 6.96456C13.7059 6.95131 13.8574 7.01722 13.9759 7.14905ZM21.6367 7.16212C21.7483 7.29376 21.8075 7.48496 21.755 7.66254C21.6958 7.8207 21.5575 7.97231 21.3993 8.01825C21.2412 8.05784 21.0567 8.03804 20.9447 7.93927C20.7999 7.81416 20.701 7.65601 20.7277 7.45845C20.7408 7.27397 20.8791 7.10928 21.0436 7.03029C21.2412 6.95131 21.4849 6.99743 21.6367 7.16212Z" fill="black"/>
<path fill-rule="evenodd" clip-rule="evenodd" d="M13.9497 7.25432C14.0289 7.35981 14.0289 7.53758 13.9826 7.6694C13.9101 7.80105 13.7717 7.91308 13.6336 7.92633C13.4952 7.93959 13.3568 7.89329 13.2646 7.80123C13.1658 7.69591 13.1066 7.56409 13.1395 7.41919C13.1593 7.26122 13.2844 7.1096 13.4425 7.06348C13.6336 6.99739 13.8444 7.08291 13.9497 7.25432ZM21.5839 7.22799C21.6892 7.34656 21.7023 7.5245 21.6562 7.67594C21.61 7.80776 21.4784 7.91308 21.3533 7.94613C21.1951 7.97899 21.0306 7.93305 20.9317 7.8143C20.8331 7.70227 20.7866 7.55737 20.8331 7.40593C20.8725 7.23471 21.0108 7.08981 21.1951 7.07655C21.3466 7.05023 21.4719 7.12921 21.5839 7.22799Z" fill="white"/>
<path fill-rule="evenodd" clip-rule="evenodd" d="M24.93 7.53106C24.9761 7.57064 24.9959 7.64963 25.042 7.68921C25.0289 7.7484 25.042 7.83411 25.0222 7.90656C24.963 8.01859 24.8444 8.11083 24.7257 8.11737C24.6207 8.10411 24.5218 8.0845 24.4689 8.00533C24.4342 7.97056 24.4087 7.92762 24.3949 7.88044C24.3811 7.83326 24.3793 7.78336 24.3898 7.73533C24.3898 7.64309 24.4426 7.56392 24.5281 7.51126C24.6271 7.42556 24.8179 7.43882 24.93 7.53106ZM10.4256 7.67577C10.4913 7.78127 10.4783 7.94596 10.3993 8.04456C10.3136 8.15005 10.1687 8.18292 10.0436 8.15005C9.99659 8.1314 9.95409 8.10298 9.9189 8.06666C9.88372 8.03035 9.85665 7.98698 9.83949 7.93942C9.80626 7.85372 9.8197 7.74822 9.86564 7.66942C9.91847 7.58371 10.0105 7.5178 10.116 7.51126C10.2411 7.49801 10.373 7.55738 10.4256 7.67577Z" fill="black"/>
<path fill-rule="evenodd" clip-rule="evenodd" d="M24.9168 7.64292C24.9566 7.72209 24.9629 7.84719 24.9105 7.9329C24.8509 7.99209 24.7853 8.02514 24.7193 8.03149C24.6337 8.02496 24.5611 7.99845 24.515 7.93943C24.4558 7.87352 24.4558 7.76167 24.4887 7.68904C24.515 7.5968 24.607 7.54414 24.6993 7.53761C24.7784 7.53107 24.8507 7.57701 24.9168 7.64292ZM10.3466 7.69576C10.3925 7.75513 10.3925 7.85391 10.3729 7.92636C10.34 7.99863 10.2674 8.07126 10.1884 8.0778C10.1027 8.08433 10.0304 8.06454 9.97759 8.01188C9.95126 7.98545 9.93157 7.95316 9.92011 7.91766C9.90866 7.88216 9.90577 7.84445 9.91168 7.80761C9.9184 7.70211 9.99738 7.62331 10.1027 7.5968C10.1884 7.57065 10.2806 7.62331 10.3466 7.69576Z" fill="white"/>
<path fill-rule="evenodd" clip-rule="evenodd" d="M17.4538 7.5968C17.4671 7.89313 17.6187 8.17639 17.8885 8.32801L17.8822 8.39392C17.5593 8.39392 17.2167 8.39392 16.9006 8.40699C16.8742 8.38066 16.8677 8.32801 16.9202 8.32129C17.164 8.16985 17.3551 7.89967 17.3747 7.61005C17.3945 7.59026 17.421 7.59026 17.4538 7.5968Z" fill="black"/>
<path fill-rule="evenodd" clip-rule="evenodd" d="M17.7172 8.31477L17.7041 8.32131C17.4868 8.30823 17.2827 8.31477 17.085 8.32131C17.2299 8.18948 17.3484 8.04458 17.4142 7.86682C17.4868 8.02516 17.5594 8.19638 17.7172 8.31477Z" fill="#CE3829"/>
<path fill-rule="evenodd" clip-rule="evenodd" d="M15.8993 8.17654C15.9916 8.27532 16.1167 8.34123 16.2483 8.38735V8.4598C15.9124 8.4992 15.5632 8.55186 15.2471 8.61123C15.1351 8.51246 15.3197 8.47959 15.3524 8.41368C15.4449 8.30183 15.4908 8.16347 15.5436 8.03836C15.6161 8.03836 15.6885 7.99859 15.761 7.99859L15.8993 8.17654ZM19.3113 8.01839C19.384 8.18308 19.4297 8.38081 19.6015 8.50574C19.6142 8.53225 19.5817 8.55186 19.5817 8.57819C19.2654 8.53207 18.9426 8.47269 18.633 8.45308C18.5607 8.32798 18.745 8.36084 18.7975 8.28839C18.9032 8.20922 18.9887 8.09737 19.0613 7.99841C19.1399 8.01839 19.2191 8.03836 19.3113 8.01839ZM13.8837 8.06451C13.9892 8.33451 14.2196 8.61123 14.5226 8.67715C14.5359 8.6904 14.5292 8.72327 14.5292 8.7496L13.4688 9.02614C13.3765 8.9339 13.5543 8.91429 13.5743 8.84166C13.7389 8.63084 13.8245 8.37391 13.7916 8.09737C13.8112 8.07776 13.8443 8.06451 13.8837 8.06451ZM21.0369 8.10391C21.0174 8.40024 21.0964 8.69022 21.327 8.89431C21.3465 8.92082 21.4193 8.95369 21.3795 8.99981L21.3532 9.01288C21.0173 8.91429 20.701 8.81551 20.3719 8.73634C20.3385 8.62449 20.4836 8.65064 20.5432 8.6047C20.734 8.49267 20.9183 8.29511 20.9777 8.0843L21.0369 8.10391Z" fill="black"/>
<path fill-rule="evenodd" clip-rule="evenodd" d="M15.8728 8.26877L16.0506 8.40041L15.3918 8.49919C15.4775 8.3808 15.5565 8.25551 15.6027 8.11715C15.6422 8.10389 15.6884 8.09082 15.7278 8.09754L15.8728 8.26877ZM19.252 8.11715C19.2914 8.23572 19.364 8.35429 19.4432 8.46614C19.2453 8.43981 19.0216 8.40695 18.804 8.38715C18.9093 8.32124 19.0147 8.20267 19.1073 8.09082L19.252 8.11715Z" fill="#CE3829"/>
<path fill-rule="evenodd" clip-rule="evenodd" d="M25.0881 8.1305V8.13703H25.075C25.0618 8.12396 25.0817 8.11724 25.0881 8.1305Z" fill="black"/>
<path fill-rule="evenodd" clip-rule="evenodd" d="M14.3514 8.70355C14.1206 8.76275 13.8706 8.82866 13.6467 8.89439C13.789 8.7156 13.8719 8.49685 13.8839 8.26868C13.9957 8.44662 14.1539 8.62457 14.3514 8.70355ZM21.1887 8.8746C20.9646 8.82194 20.7538 8.73624 20.5432 8.69683C20.6946 8.61131 20.8655 8.49274 20.9581 8.32152C20.9714 8.53233 21.0569 8.71009 21.1887 8.8746Z" fill="#CE3829"/>
<path fill-rule="evenodd" clip-rule="evenodd" d="M25.0817 8.61128C25.1934 8.74964 25.2201 8.94066 25.1605 9.11824C25.0883 9.28311 24.9236 9.41476 24.7587 9.43455C24.5809 9.45416 24.4228 9.39496 24.3111 9.2764C24.2537 9.21337 24.2134 9.13678 24.1938 9.05384C24.1742 8.9709 24.176 8.88434 24.1991 8.8023C24.2452 8.60474 24.4228 8.45313 24.6207 8.4268C24.7852 8.40701 24.9697 8.45313 25.0817 8.61128Z" fill="black"/>
<path fill-rule="evenodd" clip-rule="evenodd" d="M25.0682 8.73638C25.088 8.79576 25.0948 8.87475 25.1144 8.95391C25.088 9.10535 24.9893 9.27004 24.8445 9.32941C24.6931 9.38207 24.535 9.35574 24.4229 9.27004C24.3112 9.17126 24.2715 9.05923 24.2715 8.92758C24.2715 8.74982 24.3835 8.58495 24.5613 8.53229C24.7521 8.45312 24.9696 8.5519 25.0682 8.73638Z" fill="white"/>
<path fill-rule="evenodd" clip-rule="evenodd" d="M10.6627 8.76267C10.7549 8.88124 10.7747 9.07226 10.7221 9.22388C10.6496 9.37531 10.4849 9.52021 10.3135 9.54654C10.1621 9.54654 10.0237 9.51367 9.90515 9.41471C9.77351 9.27635 9.69453 9.09205 9.75372 8.89432C9.8131 8.70348 10.0039 8.53879 10.2082 8.53207C10.3862 8.51228 10.5574 8.6047 10.6627 8.76267Z" fill="black"/>
<path fill-rule="evenodd" clip-rule="evenodd" d="M10.5705 8.76948C10.6627 8.88805 10.689 9.06581 10.6297 9.21071C10.5716 9.32397 10.4728 9.41103 10.3531 9.45439C10.2411 9.4809 10.1292 9.44785 10.0305 9.39519C9.89863 9.30949 9.81965 9.16459 9.82618 9.01316C9.82618 8.86172 9.92514 8.73008 10.0502 8.65763C10.2213 8.57174 10.4388 8.60479 10.5705 8.76948Z" fill="white"/>
<path fill-rule="evenodd" clip-rule="evenodd" d="M22.539 10.0208L23.0792 10.2514C23.1253 10.2908 23.165 10.3569 23.1384 10.4292C23.112 10.482 23.0461 10.4951 23.0132 10.5347L23.0924 10.8837C22.9608 10.9561 22.8289 11.0351 22.7173 11.1273C22.7304 11.1802 22.7367 11.2459 22.7106 11.3051C22.6581 11.3512 22.5922 11.3843 22.5328 11.3577C22.4736 11.3316 22.4406 11.2986 22.3944 11.2855C21.0508 10.6728 19.5949 10.2251 18.06 10.2251C17.0786 10.1987 16.1631 10.2251 15.2278 10.4161C14.1739 10.6136 13.1856 11.0089 12.2372 11.47C12.203 11.4791 12.1669 11.4784 12.1331 11.4679C12.0993 11.4574 12.0692 11.4375 12.0462 11.4106C12.0001 11.3447 12.0197 11.2526 12.0395 11.1932L11.7103 10.9626C11.7234 10.8441 11.7499 10.719 11.7695 10.6004C11.7103 10.5739 11.6311 10.5608 11.6115 10.4884C11.6048 10.4422 11.6048 10.3765 11.6444 10.3369C11.7629 10.2578 11.9078 10.2184 12.0462 10.1657C13.7523 9.46082 15.5635 8.8943 17.5002 8.8943C19.272 8.88122 20.9516 9.37529 22.539 10.0208ZM22.7826 8.99326C22.7961 9.20407 22.8618 9.40834 23.02 9.57957C22.9806 9.70467 22.8949 9.56649 22.8355 9.57957C22.5457 9.44121 22.2492 9.32282 21.9659 9.21732C21.9332 9.19771 21.9528 9.16466 21.9659 9.14487C22.1635 9.11836 22.3943 9.06589 22.5653 8.91445C22.6312 8.93388 22.6971 8.97346 22.7826 8.99326ZM12.8431 9.15776C12.8497 9.17102 12.8627 9.19753 12.8562 9.23039C12.5203 9.3555 12.1844 9.45428 11.8681 9.61243L11.7825 9.63222C11.7956 9.57285 11.8615 9.53345 11.8944 9.48079C11.9801 9.35568 12.0195 9.20407 12.0328 9.05263C12.1052 9.01305 12.1777 8.9869 12.2436 8.93406C12.4215 9.05245 12.6193 9.15141 12.8431 9.15776Z" fill="black"/>
<path fill-rule="evenodd" clip-rule="evenodd" d="M21.9857 9.889C22.3216 10.0076 22.6641 10.1592 23.0067 10.3041C23.033 10.3172 23.0592 10.3635 23.0461 10.4027L22.9739 10.4488L22.4337 10.62C22.4861 10.811 22.572 10.9955 22.651 11.1931C22.651 11.2392 22.6112 11.2721 22.5787 11.2853C21.2808 10.6859 19.8976 10.2051 18.4419 10.1525C17.0653 10.0733 15.6492 10.1525 14.3715 10.5412C13.6205 10.7586 12.9025 11.0549 12.2042 11.3908C12.1515 11.4041 12.1252 11.371 12.1054 11.3447C12.1187 11.1471 12.2305 10.9825 12.2832 10.8045L12.3425 10.6596C12.1439 10.5947 11.9416 10.542 11.7366 10.5016C11.697 10.4818 11.6772 10.4292 11.7037 10.3963L11.8091 10.3435C13.739 9.54636 15.8205 8.86799 18.0139 8.9931C19.3706 9.04594 20.7143 9.4149 21.9857 9.889Z" fill="#EFC460"/>
<path fill-rule="evenodd" clip-rule="evenodd" d="M22.7034 9.05252C22.73 9.1976 22.7563 9.34904 22.8418 9.48068C22.6181 9.38844 22.3875 9.28966 22.1765 9.20396C22.3205 9.1637 22.4565 9.0991 22.5787 9.01294L22.7034 9.05252ZM12.6388 9.21068L12.0197 9.45435C12.0462 9.35557 12.0856 9.22393 12.1119 9.1119L12.2503 9.03945C12.3688 9.1119 12.5005 9.18435 12.6388 9.21068Z" fill="#CE3829"/>
<path fill-rule="evenodd" clip-rule="evenodd" d="M18.4353 9.58603C18.4484 9.61254 18.4023 9.61254 18.3892 9.62562L17.4209 9.92867L16.3933 9.61254V9.59275C16.7423 9.46093 17.0849 9.31621 17.4406 9.1842C17.77 9.30296 18.0996 9.45439 18.4353 9.58603ZM24.1791 9.21071L24.1593 9.19764L24.1791 9.204V9.21071Z" fill="black"/>
<path fill-rule="evenodd" clip-rule="evenodd" d="M18.2049 9.58596L17.4143 9.84289L16.6437 9.59921V9.58596L17.4408 9.27637C17.6977 9.36225 17.9481 9.48064 18.2049 9.58596Z" fill="#CE3829"/>
<path fill-rule="evenodd" clip-rule="evenodd" d="M19.3245 9.49395C19.3602 9.5839 19.3694 9.68219 19.351 9.77721C19.3049 9.90903 19.1598 10.0011 19.0347 10.0274C18.8896 10.0341 18.7712 9.97476 18.6988 9.87598C18.6396 9.80353 18.6196 9.72455 18.6265 9.63231C18.6329 9.49395 18.7449 9.3623 18.8765 9.32272C19.0347 9.26334 19.2259 9.33597 19.3245 9.49395ZM16.1563 9.53335C16.1957 9.65192 16.1892 9.82333 16.0904 9.92864C16.0047 10.0011 15.8994 10.0407 15.7941 10.0274C15.669 10.0076 15.5439 9.91539 15.5174 9.80353C15.4917 9.7391 15.4855 9.66854 15.4995 9.60062C15.5136 9.5327 15.5474 9.47041 15.5965 9.4215C15.6822 9.33597 15.8204 9.29639 15.9457 9.34251C16.0243 9.37538 16.1168 9.44129 16.1563 9.53335Z" fill="black"/>
<path fill-rule="evenodd" clip-rule="evenodd" d="M19.2128 9.49386C19.2522 9.5467 19.2783 9.62569 19.272 9.70467C19.2455 9.80345 19.173 9.90223 19.0808 9.93528C19.0302 9.94741 18.9775 9.94715 18.927 9.93454C18.8766 9.92193 18.8299 9.89733 18.791 9.86283C18.7118 9.77059 18.6857 9.62569 18.7579 9.52019C18.8041 9.44121 18.883 9.39509 18.9753 9.38855C19.0614 9.38855 19.1531 9.41488 19.2128 9.49386ZM16.0112 9.47407C16.0706 9.53998 16.1035 9.62551 16.0969 9.72447C16.0706 9.80345 16.0245 9.89569 15.9455 9.92874C15.8663 9.96161 15.7873 9.94853 15.7216 9.9222C15.6161 9.85629 15.5569 9.74444 15.5833 9.61915C15.6029 9.52037 15.682 9.42813 15.7873 9.40852C15.8663 9.38855 15.9455 9.41488 16.0112 9.47407Z" fill="white"/>
<path fill-rule="evenodd" clip-rule="evenodd" d="M20.6617 9.6059C20.9515 9.79674 21.2214 10.0339 21.5179 10.2314V10.2447C21.1689 10.2643 20.7867 10.2712 20.4313 10.2908C20.1281 10.0933 19.8252 9.92856 19.542 9.72429L19.555 9.71103C19.9111 9.67145 20.247 9.64512 20.6091 9.599L20.6617 9.6059ZM15.2604 9.73754C14.964 9.94835 14.6543 10.1526 14.3449 10.3239L13.3173 10.2712L13.3108 10.2579L14.1736 9.60608L15.2538 9.731L15.2604 9.73754Z" fill="black"/>
<path fill-rule="evenodd" clip-rule="evenodd" d="M21.2873 10.1723C20.9975 10.1791 20.7277 10.2052 20.4375 10.2052C20.2202 10.0405 19.9896 9.93521 19.779 9.77706C20.0555 9.75073 20.3192 9.69807 20.6088 9.68481C20.8463 9.81664 21.0505 10.0011 21.2873 10.1723ZM15.0431 9.79013C14.8127 9.94846 14.5688 10.0932 14.3317 10.2383L13.5413 10.2052V10.192L14.2 9.68481C14.4833 9.71132 14.7598 9.75091 15.0431 9.79013Z" fill="#1E7E62"/>
<path fill-rule="evenodd" clip-rule="evenodd" d="M22.3808 10.3171C22.4403 10.4292 22.4138 10.6071 22.3414 10.719C22.2424 10.8178 22.0977 10.8704 21.9659 10.8375C21.8408 10.8047 21.7353 10.6926 21.7024 10.5873C21.663 10.449 21.7024 10.3041 21.8144 10.2251C21.9003 10.1328 22.0318 10.1065 22.1571 10.1328C22.2361 10.1657 22.3347 10.2184 22.3808 10.3171ZM13.0143 10.2712C13.0802 10.3437 13.1131 10.4423 13.1066 10.5477C13.0868 10.64 13.0407 10.7324 12.9682 10.7914C12.8562 10.8639 12.7178 10.8837 12.5994 10.8375C12.4807 10.7718 12.4019 10.6531 12.3952 10.528C12.3819 10.3765 12.4676 10.2645 12.5862 10.192C12.7178 10.1196 12.9023 10.1526 13.0143 10.2712Z" fill="black"/>
<path fill-rule="evenodd" clip-rule="evenodd" d="M22.3216 10.3896C22.3414 10.4688 22.3283 10.5674 22.2889 10.6466C22.2293 10.6992 22.1701 10.7453 22.091 10.7651C21.992 10.7717 21.9132 10.7323 21.854 10.6794C21.7881 10.607 21.7681 10.5213 21.7881 10.4486C21.7881 10.3566 21.8473 10.2774 21.9265 10.2446C21.992 10.205 22.0846 10.1854 22.1634 10.2313C22.223 10.258 22.2889 10.3108 22.3216 10.3896ZM12.9549 10.3304C13.0076 10.3896 13.0341 10.4753 13.0143 10.5543C13.0068 10.597 12.9899 10.6374 12.9648 10.6727C12.9397 10.7081 12.9072 10.7374 12.8694 10.7586C12.7903 10.7849 12.6915 10.7915 12.6256 10.7586C12.5202 10.6927 12.4676 10.5741 12.4874 10.4688C12.4939 10.3766 12.5531 10.3108 12.6256 10.2645C12.7311 10.2119 12.8694 10.2382 12.9549 10.3304Z" fill="white"/>
<path fill-rule="evenodd" clip-rule="evenodd" d="M22.7763 11.5425C24.1661 12.2474 25.4439 13.288 26.4848 14.5528C27.1367 15.4224 27.7559 16.3312 28.1775 17.3259C28.7836 18.8146 29.1326 20.435 29.1262 22.1872C29.0603 24.0644 28.6318 25.8162 27.8287 27.4172C27.4268 28.1811 26.9063 28.9056 26.3728 29.6237C25.4308 30.7039 24.3244 31.6327 23.1253 32.3176C21.0372 33.477 18.6068 33.9777 16.1497 33.7206C14.6019 33.5167 13.1395 33.062 11.8089 32.3176C11.3477 32.0608 10.9197 31.7382 10.4916 31.4547C9.60237 30.77 8.82504 29.9464 8.13995 29.057C8.02099 28.8606 7.89358 28.6694 7.7581 28.484C7.12567 27.5289 6.68444 26.5015 6.34834 25.4474C5.85427 23.702 5.70937 21.6667 6.08487 19.8487C6.2561 18.7157 6.65792 17.6947 7.13874 16.7067C7.38895 16.2324 7.65914 15.7647 7.96873 15.3367C8.19261 14.9414 8.5022 14.612 8.79218 14.2631C9.6287 13.2816 10.6365 12.4847 11.7038 11.8457C13.785 10.6469 16.1629 10.087 18.6859 10.3374C20.1416 10.4754 21.4984 10.897 22.7763 11.5425Z" fill="black"/>
<path fill-rule="evenodd" clip-rule="evenodd" d="M23.6391 12.1354C24.8838 12.9258 25.997 13.9598 26.8731 15.2115C28.1512 16.9767 28.8429 18.999 29.0074 21.2449C29.1325 23.4781 28.6584 25.6056 27.7033 27.4762C27.1764 28.3852 26.5833 29.3073 25.8194 30.1042C23.3033 32.7325 19.8054 34.0106 16.2157 33.6482C14.0751 33.3978 12.0988 32.5942 10.3929 31.277C9.59575 30.6447 8.87779 29.874 8.27841 29.103C8.0676 28.8264 7.9227 28.5303 7.71861 28.2732C7.27737 27.5815 6.96125 26.8503 6.66473 26.1195C6.08514 24.5648 5.85454 22.8061 6.00597 21.0473C6.13108 19.46 6.56596 18.0108 7.25758 16.6737C7.26412 16.6672 7.29063 16.6737 7.29063 16.6606L7.27756 16.6408C7.46204 16.2918 7.64634 15.9559 7.86369 15.6331C7.99551 15.4618 8.0745 15.2708 8.21268 15.1061C8.81878 14.3288 9.47082 13.5713 10.2482 12.9653C10.6302 12.6294 11.0453 12.3725 11.4535 12.1025C11.6512 11.9247 11.9014 11.8586 12.1122 11.7139C14.7206 10.2911 18.0538 9.94863 20.9452 10.8839C21.887 11.1736 22.7893 11.6084 23.6391 12.1354Z" fill="#EFC460"/>
<path fill-rule="evenodd" clip-rule="evenodd" d="M22.9937 10.8442C22.888 10.9101 22.7827 10.976 22.6904 11.0352C22.6312 10.9166 22.572 10.7981 22.5457 10.6728C22.6641 10.6334 22.7827 10.6005 22.9145 10.5609C22.9539 10.6335 22.967 10.7454 22.9937 10.8442ZM12.2174 10.7058C12.1779 10.8376 12.1119 10.9693 12.066 11.1076L11.8158 10.9364C11.8158 10.8309 11.8356 10.7125 11.8815 10.6268L12.2174 10.7058Z" fill="#CE3829"/>
<path fill-rule="evenodd" clip-rule="evenodd" d="M23.9879 14.1178C25.1738 15.1323 26.2211 16.4759 26.8069 17.8988C27.3474 19.1765 27.6503 20.5663 27.657 22.075C27.6436 23.8599 27.1432 25.4605 26.412 26.9623C25.536 28.5366 24.1791 29.9662 22.6248 30.8946C21.7814 31.3823 20.8924 31.7443 19.9502 32.0015C17.744 32.5745 15.1749 32.311 13.1659 31.3492C12.6192 31.0858 12.1053 30.7698 11.5982 30.4335C11.1239 30.0384 10.6233 29.676 10.2084 29.2153C9.55619 28.5433 9.04905 27.8119 8.62743 27.0613C8.2256 26.4024 7.99518 25.6846 7.75804 24.9799C7.32988 23.557 7.21766 21.8246 7.49439 20.3095C7.62621 19.473 7.89622 18.7024 8.17948 17.9449C8.66029 16.891 9.25968 15.8898 10.1093 15.0137C10.5836 14.4472 11.1566 14.019 11.7297 13.5843C11.9207 13.479 12.0854 13.3276 12.2829 13.2288C14.3315 11.9574 16.9662 11.47 19.4296 11.9443C21.103 12.267 22.6248 13.0047 23.9879 14.1178Z" fill="black"/>
<path fill-rule="evenodd" clip-rule="evenodd" d="M22.796 13.3605C22.8485 13.4001 22.8023 13.3605 22.8552 13.4001C24.6207 14.5068 26.0823 16.2653 26.8268 18.1755C27.2684 19.3149 27.5449 20.5535 27.5647 21.884C27.5842 23.4914 27.2154 24.9601 26.616 26.3301C26.2074 25.9022 25.7862 25.494 25.3907 25.1049C25.4305 24.9009 25.5095 24.7097 25.5752 24.5254C26.0429 23.0565 26.076 21.2518 25.6544 19.7565C25.4238 18.9067 25.0617 18.1163 24.6007 17.372C23.8297 16.1931 22.7499 15.1653 21.5444 14.5331C21.2479 14.8164 20.9777 15.139 20.6879 15.4355C20.273 15.8637 19.8381 16.2853 19.4495 16.72C18.6065 16.3973 17.6448 16.2984 16.7489 16.4171L16.6369 16.3184L16.1561 15.8441L14.7069 14.3884L13.3435 13.0315L13.1722 12.8537L13.2118 12.8274C15.313 11.7998 17.9479 11.5561 20.2663 12.228C21.1491 12.4976 22.0119 12.8401 22.796 13.3605Z" fill="white"/>
<path fill-rule="evenodd" clip-rule="evenodd" d="M14.5622 14.3614L15.1681 14.9741L16.4855 16.2916L16.6238 16.4298C16.1824 16.4824 15.7806 16.6208 15.3855 16.7722L14.9177 16.311C14.3447 15.7643 13.7847 15.1912 13.2184 14.6577C12.4278 15.1122 11.7035 15.6788 11.0906 16.4098C10.4451 17.0883 10.0304 17.8853 9.65474 18.6889L9.63513 18.6822L8.4823 17.5165C8.79842 16.8841 9.16739 16.2714 9.61516 15.7049C9.93782 15.3098 10.2739 14.9145 10.6362 14.5786C11.1039 14.1835 11.5517 13.7618 12.0723 13.4588C12.3884 13.248 12.7308 13.0637 13.0733 12.8925L13.0865 12.899L14.5622 14.3614Z" fill="#2B3E8A"/>
<path fill-rule="evenodd" clip-rule="evenodd" d="M24.146 16.8779C25.2791 18.4127 25.8848 20.1976 25.8654 22.2266C25.8058 23.6688 25.4174 25.0127 24.7454 26.2316C24.7323 26.2051 24.7191 26.2249 24.7124 26.2316L24.7191 26.2774C24.0474 27.4765 22.9803 28.5237 21.8404 29.2812L21.7481 29.3273L21.7414 29.301L21.7481 27.6477C22.8153 26.8112 23.6387 25.6518 24.0736 24.4266C24.4226 23.4782 24.5346 22.3913 24.4623 21.3372C24.3372 19.9935 23.8495 18.8011 23.0725 17.7607C22.697 17.2666 22.2424 16.8056 21.775 16.4434H21.7552C21.4149 16.764 21.0875 17.098 20.7736 17.4446C20.3852 17.1613 19.9502 16.9307 19.542 16.7529C20.0215 16.2317 20.5113 15.72 21.0109 15.2181L21.5709 14.645C22.552 15.1718 23.4283 15.9622 24.146 16.8779ZM16.5251 18.0307C16.8222 18.3086 17.1142 18.592 17.401 18.8805C17.4077 18.8936 17.3945 18.9262 17.4273 18.946C17.7108 18.6695 17.9942 18.3336 18.2902 18.057C18.3824 18.0307 18.4681 18.0834 18.5667 18.1031C18.9359 18.2152 19.2979 18.3468 19.6271 18.584L19.6077 18.6234L19.2059 19.0319L17.513 20.7509L17.434 20.8368C17.1443 20.6127 16.9334 20.3296 16.6765 20.0992C15.7741 19.2166 14.9112 18.3009 14.009 17.4315L13.0802 16.496L13.0274 16.5225C13.0208 16.5093 13.0143 16.496 13.0076 16.5093C12.6388 16.7992 12.2765 17.1548 11.9933 17.537C11.4137 18.1758 11.0645 18.94 10.7747 19.7237C10.2149 21.2586 10.261 23.2478 10.9329 24.7361C11.1304 25.217 11.3874 25.6849 11.6772 26.1459C11.9012 26.3963 12.1053 26.6861 12.3492 26.9428C12.5928 27.1869 12.8432 27.4237 13.1265 27.6479L13.1198 29.3208C12.5796 28.9981 12.0725 28.5899 11.6047 28.1748C11.1633 27.6871 10.7288 27.1932 10.3927 26.6794C9.89208 25.8165 9.46392 24.9406 9.26636 23.9724C8.80534 21.9698 9.11493 19.737 10.07 18.0507C10.4453 17.2472 11.0647 16.5556 11.6772 15.8968C12.0263 15.5807 12.4018 15.2776 12.7971 15.0142L13.212 14.764C14.3251 15.8436 15.4185 16.9305 16.5251 18.0307Z" fill="#EFC460"/>
<path fill-rule="evenodd" clip-rule="evenodd" d="M20.3916 17.2863C20.7283 17.5015 21.0418 17.7509 21.327 18.0308V18.0635C20.9977 18.3861 20.6617 18.7026 20.3454 19.032C20.2599 18.9594 20.1677 18.8806 20.0954 18.8146C19.5618 18.3798 18.9754 18.0834 18.3299 17.9518C17.7569 17.8398 17.1377 17.8267 16.5777 17.9582C16.1694 17.5826 15.84 17.2139 15.4645 16.8451C17.0257 16.1863 18.9822 16.3641 20.3916 17.2863Z" fill="#EFC460"/>
<path fill-rule="evenodd" clip-rule="evenodd" d="M22.1502 16.8646C23.3226 17.9579 24.0539 19.3482 24.3175 20.8891C24.4495 21.785 24.4097 22.7864 24.2185 23.6493L24.1463 23.8535C23.4679 23.1485 22.7565 22.4832 22.111 21.8048C21.7222 21.4097 21.3073 21.0278 20.9516 20.6454L19.621 19.3085L19.3512 19.0187C19.4565 18.8736 19.5749 18.7616 19.7002 18.6432C19.9294 18.7825 20.1397 18.9507 20.3261 19.1436H20.3588C20.72 18.7781 21.0846 18.4159 21.4524 18.0571L21.4457 18.0307C21.2545 17.8265 21.0308 17.6619 20.853 17.4838C21.1361 17.161 21.4524 16.8449 21.7683 16.5551C21.8935 16.634 22.0187 16.7528 22.1502 16.8646Z" fill="white"/>
<path fill-rule="evenodd" clip-rule="evenodd" d="M14.0219 17.5562L14.009 17.5893C12.924 18.4273 12.1893 19.6387 11.9474 20.9882C11.7695 20.8499 11.5917 20.6656 11.4533 20.5074C11.4336 20.4876 11.4336 20.4415 11.4007 20.468L10.8276 19.8817C11.0252 19.2362 11.315 18.6301 11.6772 18.0634C11.8882 17.7999 12.0858 17.5038 12.3229 17.273C12.5403 17.0228 12.7841 16.7856 13.0409 16.5946H13.0672L14.0219 17.5562Z" fill="#2B3E8A"/>
<path fill-rule="evenodd" clip-rule="evenodd" d="M8.64051 16.9699V16.9765L8.63379 16.9567C8.63379 16.9567 8.64051 16.9568 8.64051 16.9699Z" fill="black"/>
<path fill-rule="evenodd" clip-rule="evenodd" d="M9.6089 18.7816C8.80542 20.6587 8.75258 23.2146 9.52337 25.1509C9.88562 26.0007 10.3205 26.8309 10.9658 27.5817C11.1832 27.8321 11.4465 28.1086 11.6903 28.3654C12.1513 28.7608 12.6587 29.1627 13.1987 29.4655L13.2119 29.4261L13.2185 27.6278L13.1921 27.588C12.8101 27.2919 12.4544 26.9295 12.1315 26.5738C11.7956 26.1589 11.4993 25.7439 11.2819 25.296C10.5377 23.8732 10.2609 22.0946 10.6562 20.4414L10.7879 19.9803L10.8472 20.0201C11.2227 20.3624 11.5389 20.7577 11.9209 21.1003C11.8221 21.6468 11.8156 22.2991 11.9078 22.8852C11.9935 23.465 12.1515 24.0182 12.415 24.5385C12.9156 25.5464 13.7982 26.5146 14.8323 27.0348C15.1813 27.2327 15.5633 27.3774 15.9652 27.5025V30.0123C16.4988 30.0123 16.9664 30.0056 17.4737 30.0123L17.4802 29.9725L17.4868 27.7066C17.8094 27.6803 18.106 27.6605 18.4286 27.6144L19.2851 28.4705C19.9965 29.2153 20.7474 29.9264 21.4718 30.6906C21.6367 30.8421 21.7882 30.9804 21.9596 31.1647C19.72 32.3041 16.9335 32.5347 14.5227 31.7839C13.5742 31.4743 12.685 31.0658 11.8617 30.5062C11.5323 30.3019 11.236 30.0253 10.9395 29.7947C10.2411 29.1819 9.60236 28.4641 9.12136 27.7197C8.68013 27.0281 8.29156 26.3232 8.04116 25.5724C7.88319 25.085 7.72504 24.6042 7.6328 24.1034C7.30342 22.5489 7.38912 20.7637 7.81074 19.2883C8.00158 18.7153 8.13994 18.1226 8.43627 17.6088C8.84482 17.9779 9.20707 18.373 9.6089 18.7816Z" fill="white"/>
<path fill-rule="evenodd" clip-rule="evenodd" d="M15.0759 18.6165V18.6299C13.6794 19.5981 13.0339 21.2908 13.4227 22.9707C13.64 23.9652 14.2855 24.894 15.201 25.5001C16.2616 26.198 17.7171 26.3431 18.9361 25.8821C19.4234 25.7043 19.8581 25.375 20.273 25.0456C20.589 25.375 20.9316 25.6847 21.261 26.0602C20.9116 26.4553 20.4375 26.7252 19.9896 26.9954C18.5143 27.799 16.5118 27.8054 15.0166 27.0415C14.3843 26.7188 13.8047 26.2839 13.3303 25.7439C12.5201 24.8282 12.0458 23.7548 11.9603 22.5362C11.8746 21.3637 12.0986 20.2374 12.6453 19.2954C13.0009 18.6762 13.5082 18.0634 14.0813 17.6353C14.4108 17.9579 14.7531 18.2611 15.0759 18.6165Z" fill="#EFC460"/>
<path fill-rule="evenodd" clip-rule="evenodd" d="M18.1918 18.0173C18.1195 18.1032 18.0206 18.1889 17.9481 18.2875C17.7833 18.4456 17.6188 18.6234 17.4539 18.7946C17.1773 18.564 16.9335 18.2811 16.67 18.0307C17.1574 17.9187 17.6778 17.9187 18.1918 18.0173ZM16.9994 20.5532C17.1378 20.6852 17.2629 20.8234 17.421 20.955L17.4539 20.9352C18.0598 20.2964 18.6461 19.6905 19.2784 19.0844C19.4628 19.2556 19.6475 19.4665 19.8514 19.6642C20.2138 20.0001 20.5565 20.395 20.9383 20.7444C21.3071 21.1332 21.6828 21.5083 22.091 21.9038L23.3818 23.2078L24.1197 23.9523C23.9088 24.6835 23.5992 25.3751 23.1647 26.0274C22.7298 26.6068 22.249 27.16 21.6628 27.6013L21.6498 27.6541V29.4657L21.6692 29.4788C23.1118 28.6159 24.3698 27.259 25.0879 25.7639L25.3447 25.1841C25.7469 25.5796 26.1681 25.9811 26.5767 26.4225C26.2801 27.0616 25.8979 27.6608 25.4634 28.2535C24.5346 29.4457 23.3488 30.4406 22.0447 31.1253C21.5837 30.6512 21.1294 30.2298 20.6878 29.7684L19.4164 28.4839C19.127 28.1871 18.8328 27.8951 18.5337 27.608L18.5535 27.5882C19.6076 27.3712 20.5625 26.8641 21.3661 26.0935C21.3925 26.0604 21.3598 26.0275 21.3463 26.0208C20.9906 25.6321 20.6219 25.2833 20.2796 24.9207C19.726 25.4147 19.0937 25.7839 18.4021 25.9615C18.0992 26.0274 17.8027 26.0537 17.4996 26.0735L17.4864 26.047L17.4931 24.9735L18.5335 24.9668L18.5533 24.9207L18.547 23.4978L18.5139 23.4848H17.4401C17.4205 23.2541 17.4268 23.0107 17.4335 22.7931L18.8958 22.7801L18.9089 22.747L18.9025 21.3372H16.2286L15.9849 21.344L15.9719 21.4493L15.9651 25.0325C15.346 24.4003 14.7005 23.735 14.0549 23.1156L13.4423 22.4964C13.317 21.6534 13.5015 20.7905 13.8835 20.0924C14.1535 19.5391 14.6344 19.045 15.135 18.6893C15.7743 19.2887 16.3604 19.9471 16.9994 20.5532Z" fill="#2B3E8A"/>
<path fill-rule="evenodd" clip-rule="evenodd" d="M6.21015 19.0648L6.20361 19.0518L6.21015 19.0581V19.0648ZM29.146 21.2646C29.1393 21.2646 29.1262 21.2777 29.1326 21.2777V21.2514C29.1324 21.2448 29.1393 21.2516 29.146 21.2646Z" fill="black"/>
<path fill-rule="evenodd" clip-rule="evenodd" d="M18.8174 21.4428C18.8174 21.8708 18.8043 22.2595 18.811 22.6944C18.3366 22.7008 17.8559 22.6877 17.3552 22.7008C17.3223 22.9773 17.3355 23.2608 17.3419 23.5506L17.3617 23.5703H18.4617V24.8811L18.4354 24.8879H17.4142L17.4011 24.9073L17.3946 26.0667C16.9334 26.0536 16.479 25.9744 16.064 25.8293V21.4294C16.9729 21.403 17.8754 21.4163 18.8041 21.4163L18.8174 21.4428Z" fill="#EFC460"/>
<path fill-rule="evenodd" clip-rule="evenodd" d="M5.86097 22.6152L5.85425 22.6018C5.86097 22.5885 5.86097 22.6018 5.86097 22.6152Z" fill="black"/>
<path fill-rule="evenodd" clip-rule="evenodd" d="M15.3461 24.5317L15.9653 25.1509V25.7967C14.9377 25.3882 13.9826 24.4531 13.64 23.4188C13.5543 23.1553 13.4688 22.8919 13.4557 22.6348C14.0681 23.2805 14.74 23.8798 15.3461 24.5317Z" fill="white"/>
<path fill-rule="evenodd" clip-rule="evenodd" d="M24.0933 23.761L24.0869 23.7546H24.0933V23.761Z" fill="black"/>
<path fill-rule="evenodd" clip-rule="evenodd" d="M17.388 27.7L17.3945 27.8713L17.388 29.9396L16.0574 29.9332L16.0639 27.5288C16.479 27.6209 16.9335 27.6937 17.388 27.7Z" fill="#EFC460"/>
<path fill-rule="evenodd" clip-rule="evenodd" d="M25.5822 30.282L25.5755 30.2884V30.269C25.5755 30.2559 25.5755 30.269 25.5822 30.282ZM18.7713 32.2649H18.7518L18.7582 32.2451C18.7649 32.232 18.7649 32.2451 18.7713 32.2649Z" fill="black"/>
</g>
<defs>
<clipPath id="clip0_1_91">
<rect width="35" height="35" fill="white"/>
</clipPath>
</defs>
</svg>
